<svg width="325" height="280" viewBox="0 0 325 280" fill="none" xmlns="http://www.w3.org/2000/svg">
<line x1="324.354" y1="42.3536" x2="218.354" y2="148.354" stroke="black" stroke-dasharray="150 8"/>
<g clip-path="url(#clip0_95:1997)">
<path d="M177.715 67.8833L177.307 65.688L171.041 66.8513L168.809 54.8303L166.316 55.2932L168.955 69.5096L177.715 67.8833Z" fill="black"/>
<path d="M178.068 60.5035C178.259 64.7958 181.44 67.8098 185.754 67.6181C190.068 67.4265 192.969 64.1422 192.779 59.8499C192.588 55.5575 189.407 52.5435 185.093 52.7352C180.779 52.9269 177.877 56.2112 178.068 60.5035ZM190.19 59.9649C190.322 62.9199 188.545 65.2465 185.654 65.3749C182.742 65.5043 180.788 63.3435 180.657 60.3885C180.524 57.4119 182.281 55.1078 185.192 54.9784C188.083 54.85 190.058 56.9883 190.19 59.9649Z" fill="black"/>
<path d="M207.645 68.7064L209.478 54.3587L206.961 54.0372L205.662 64.2118L199.626 53.1004L197.045 52.7707L195.212 67.1184L197.729 67.4398L199.064 56.9856L205.215 68.3959L207.645 68.7064Z" fill="black"/>
<path d="M215.363 71.005C219.654 72.3297 223.436 70.4014 224.684 66.3579C225.932 62.3144 223.902 58.5694 219.611 57.2447L214.495 55.6653L210.247 69.4256L215.363 71.005ZM216.253 58.5353L218.955 59.3696C222.029 60.3186 223.03 62.9323 222.208 65.5936C221.406 68.193 219.011 69.8036 216.019 68.8801L213.317 68.0458L216.253 58.5353Z" fill="black"/>
<path d="M227.207 67.335C225.249 71.1593 226.521 75.3527 230.365 77.3209C234.209 79.289 238.355 77.8708 240.313 74.0465C242.272 70.2222 240.999 66.0289 237.155 64.0607C233.312 62.0925 229.165 63.5107 227.207 67.335ZM238.007 72.8656C236.659 75.4984 233.964 76.6409 231.388 75.3222C228.794 73.9937 228.165 71.1488 229.513 68.5159C230.871 65.8639 233.537 64.7308 236.132 66.0593C238.707 67.378 239.365 70.2136 238.007 72.8656Z" fill="black"/>
<path d="M248.847 89.1658L257.598 77.6387L255.576 76.1036L249.37 84.278L249.683 71.6294L247.609 70.0549L238.858 81.582L240.88 83.1171L247.257 74.7181L246.894 87.6832L248.847 89.1658Z" fill="black"/>
<path d="M274.88 128.81C275.778 131.356 277.841 132.208 279.938 131.468C281.608 130.879 282.637 129.189 282.352 127.664C283.061 128.833 284.589 129.53 286.3 128.927C288.214 128.252 289.273 126.322 288.397 123.838L286.042 117.159L272.461 121.948L274.88 128.81ZM284.785 120.281L286.127 124.089C286.558 125.311 286.049 126.268 285.031 126.627C284.013 126.986 283.036 126.553 282.605 125.331L281.262 121.523L284.785 120.281ZM279.165 122.263L280.544 126.172C281.025 127.537 280.421 128.551 279.403 128.91C278.222 129.326 277.236 128.804 276.777 127.501L275.398 123.591L279.165 122.263Z" fill="black"/>
<path d="M278.93 145.933L283.869 141.422C284.463 143.076 286.136 144.485 288.672 144.014C291.294 143.527 292.786 141.354 292.264 138.541L291.105 132.296L276.888 134.935L277.351 137.428L282.658 136.443L283.117 138.916L278.396 143.055L278.93 145.933ZM288.197 141.456C286.833 141.71 285.748 140.853 285.487 139.446L284.854 136.036L289.372 135.197L290.005 138.607C290.267 140.014 289.561 141.203 288.197 141.456Z" fill="black"/>
<path d="M279.16 150.597L293.518 149.481L293.322 146.962L278.964 148.078L279.16 150.597Z" fill="black"/>
<path d="M281.498 152.565C280.12 153.82 279.165 155.729 279.129 158.384C279.076 162.27 281.103 163.982 283.5 164.015C286.63 164.058 287.403 161.24 288.04 158.873C288.495 157.174 288.882 155.711 290.005 155.726C291.084 155.741 291.784 156.701 291.763 158.19C291.743 159.702 291.203 161.227 290.065 162.335L291.924 163.807C293.237 162.486 293.975 160.682 294.006 158.437C294.049 155.285 292.242 153.166 289.868 153.133C286.824 153.092 286.095 155.845 285.48 158.191C285.002 159.933 284.593 161.461 283.298 161.443C282.348 161.43 281.344 160.595 281.373 158.523C281.4 156.515 282.35 154.974 283.421 153.995L281.498 152.565Z" fill="black"/>
<path d="M278.199 171.696L290.233 173.5L289.587 177.81L291.785 178.139L293.451 167.023L291.253 166.693L290.607 171.003L278.573 169.2L278.199 171.696Z" fill="black"/>
<path d="M284.37 178.857C280.278 177.558 276.356 179.506 275.051 183.619C273.746 187.732 275.829 191.584 279.922 192.882C284.014 194.18 287.936 192.233 289.241 188.12C290.545 184.007 288.463 180.155 284.37 178.857ZM280.704 190.414C277.887 189.52 276.316 187.053 277.19 184.297C278.07 181.521 280.77 180.431 283.587 181.324C286.425 182.225 287.983 184.665 287.102 187.441C286.228 190.197 283.542 191.314 280.704 190.414Z" fill="black"/>
<path d="M268.171 200.545L270.161 201.519L272.942 195.839L283.84 201.173L284.947 198.913L272.059 192.603L268.171 200.545Z" fill="black"/>
<path d="M229.042 238.002L236.401 250.381L239.464 248.56L237.887 238.219L246.2 244.555L249.262 242.734L241.903 230.356L239.731 231.647L245.304 241.019L235.945 233.898L235.018 234.449L236.785 246.083L231.213 236.711L229.042 238.002Z" fill="black"/>
<path d="M214.329 243.66L224.69 255.239L227.658 254.137L227.947 238.602L225.345 239.568L225.316 242.54L218.893 244.926L216.93 242.694L214.329 243.66ZM220.341 246.77L225.423 244.882L225.426 252.676L220.341 246.77Z" fill="black"/>
<path d="M200.843 246.363L203.626 260.566L206.117 260.078L204.144 250.006L213.378 258.655L215.933 258.155L213.151 243.952L210.659 244.44L212.687 254.789L203.249 245.892L200.843 246.363Z" fill="black"/>
<path d="M191.323 246.535C188.297 246.638 186.576 248.211 185.532 249.978L187.731 251.007C188.381 249.773 189.735 248.84 191.399 248.783C194.145 248.69 196.337 250.802 196.44 253.828C196.542 256.855 194.498 259.11 191.752 259.203C190.088 259.259 188.674 258.398 187.942 257.233L185.817 258.408C186.957 260.101 188.802 261.554 191.829 261.451C195.979 261.31 199.184 258.172 199.034 253.741C198.884 249.309 195.474 246.395 191.323 246.535Z" fill="black"/>
<path d="M171.379 244.959L169.39 259.177L171.884 259.526L172.698 253.707L180.095 254.742L179.28 260.561L181.774 260.91L183.764 246.692L181.27 246.343L180.402 252.546L173.005 251.511L173.873 245.308L171.379 244.959Z" fill="black"/>
<path d="M159.18 241.575L158.547 243.707L165.583 245.797L164.446 249.626L157.554 247.579L156.921 249.71L163.813 251.758L162.749 255.338L155.712 253.248L155.079 255.38L164.537 258.189L168.638 244.385L159.18 241.575Z" fill="black"/>
<path d="M156.989 243.047C156.392 241.275 155.024 239.628 152.6 238.522C149.051 236.904 146.66 238.076 145.662 240.264C144.359 243.122 146.635 244.97 148.552 246.51C149.93 247.615 151.117 248.561 150.65 249.586C150.2 250.572 149.036 250.827 147.676 250.207C146.296 249.577 145.113 248.466 144.555 246.974L142.452 248.086C143.135 249.826 144.494 251.232 146.544 252.167C149.422 253.479 152.099 252.675 153.087 250.507C154.355 247.728 152.119 245.946 150.213 244.434C148.805 243.292 147.567 242.299 148.107 241.116C148.502 240.249 149.674 239.664 151.566 240.527C153.399 241.363 154.432 242.858 154.899 244.237L156.989 243.047Z" fill="black"/>
<path d="M140.818 232.287L134.328 242.59L130.638 240.266L129.453 242.148L138.971 248.143L140.156 246.261L136.466 243.937L142.956 233.633L140.818 232.287Z" fill="black"/>
<path d="M128.088 222.474L126.66 224.179L132.288 228.893L129.723 231.955L124.211 227.339L122.783 229.044L128.295 233.66L125.897 236.523L120.269 231.81L118.841 233.515L126.406 239.85L135.652 228.81L128.088 222.474Z" fill="black"/>
<path d="M118.926 212.63L117.104 219.038C115.735 217.948 113.58 217.631 111.678 219.358C109.712 221.143 109.586 223.766 111.502 225.876L115.755 230.559L126.416 220.877L124.718 219.007L120.738 222.622L119.054 220.768L120.886 214.788L118.926 212.63ZM113.42 221.276C114.443 220.347 115.811 220.504 116.769 221.559L119.091 224.117L115.703 227.194L113.38 224.637C112.422 223.582 112.397 222.205 113.42 221.276Z" fill="black"/>
<path d="M96.4012 184.043C100.798 183.086 102.961 179.155 102.077 175.095C101.545 172.654 100.11 170.918 98.2714 169.863L93.0118 171.009L94.4596 177.657L96.6265 177.185L95.7148 172.998L97.9028 172.522C98.6293 173.025 99.5774 174.141 99.8889 175.571C100.494 178.348 98.7967 180.877 95.8514 181.519C92.906 182.16 90.3322 180.561 89.7275 177.784C89.3839 176.206 89.9157 174.702 90.8073 173.737L89.2314 171.964C87.8588 173.453 86.9439 175.525 87.5395 178.26C88.4237 182.321 92.0042 185.001 96.4012 184.043Z" fill="black"/>
<path d="M99.8045 158.104L97.5855 158.252L98.0078 164.585L85.8576 165.395L86.0256 167.916L100.395 166.958L99.8045 158.104Z" fill="black"/>
<path d="M100.691 143.172L85.9171 147.767L85.6881 150.911L99.6401 157.599L99.8409 154.843L97.1614 153.587L97.6571 146.782L100.49 145.928L100.691 143.172ZM95.3873 147.332L94.9952 152.715L87.9344 149.495L95.3873 147.332Z" fill="black"/>
<path d="M98.8321 142.598C100.438 141.653 101.764 139.98 102.344 137.389C103.194 133.597 101.56 131.505 99.2218 130.981C96.1669 130.297 94.8323 132.896 93.7232 135.082C92.929 136.652 92.2499 138.004 91.1544 137.759C90.1009 137.523 89.6133 136.44 89.939 134.986C90.2693 133.512 91.11 132.129 92.451 131.279L90.9343 129.457C89.3775 130.48 88.2858 132.094 87.795 134.285C87.106 137.361 88.439 139.806 90.7566 140.325C93.7273 140.99 95.0055 138.444 96.0888 136.275C96.9135 134.668 97.6278 133.257 98.892 133.54C99.819 133.748 100.63 134.77 100.177 136.793C99.7379 138.752 98.4922 140.066 97.2427 140.804L98.8321 142.598Z" fill="black"/>
<path d="M96.9344 127.912C101.133 129.566 105.127 127.497 106.655 123.62C107.573 121.289 107.345 119.041 106.401 117.138L101.379 115.159L98.8779 121.507L100.947 122.322L102.522 118.325L104.611 119.148C104.936 119.972 105.104 121.431 104.566 122.796C103.521 125.448 100.696 126.609 97.8842 125.501C95.0719 124.393 93.8187 121.625 94.8635 118.973C95.4572 117.467 96.7392 116.51 98.0206 116.203L97.6958 113.847C95.7216 114.322 93.8034 115.539 92.7744 118.15C91.2468 122.027 92.736 126.257 96.9344 127.912Z" fill="black"/>
<path d="M103.136 112.701C106.8 114.946 111.078 113.998 113.335 110.317C115.591 106.635 114.495 102.392 110.831 100.147C107.168 97.9014 102.89 98.8496 100.633 102.531C98.3766 106.213 99.4732 110.456 103.136 112.701ZM109.477 102.356C111.999 103.901 112.932 106.676 111.42 109.143C109.897 111.628 107.012 112.038 104.49 110.492C101.95 108.935 101.024 106.19 102.548 103.705C104.06 101.238 106.937 100.799 109.477 102.356Z" fill="black"/>
<path d="M127.131 92.4237L119.264 79.6829L117.357 81.7714L123.673 91.3119L113.469 86.028L112.115 87.5106L118.3 97.1947L108.213 91.7831L106.306 93.8716L119.72 100.538L121.54 98.5456L115.575 89.3253L125.311 94.4165L127.131 92.4237Z" fill="black"/>
</g>
<path d="M115.402 183.455C110.252 169.04 109.346 153.451 112.791 138.537C116.235 123.622 123.886 110.009 134.836 99.3132L136.576 101.095C125.968 111.458 118.555 124.647 115.217 139.097C111.88 153.547 112.758 168.651 117.748 182.617L115.402 183.455Z" fill="black"/>
<path d="M168.805 79.6049C181.825 75.8931 195.574 75.5462 208.764 78.5966C221.954 81.647 234.154 87.9949 244.223 97.046L242.557 98.8983C232.803 90.129 220.982 83.9787 208.203 81.0233C195.423 78.0679 182.102 78.404 169.488 82.0002L168.805 79.6049Z" fill="black"/>
<path d="M264.462 125.478C269.285 136.925 271.376 149.339 270.57 161.735C269.763 174.131 266.081 186.168 259.815 196.894L257.664 195.638C263.735 185.246 267.303 173.583 268.084 161.573C268.866 149.563 266.84 137.536 262.167 126.445L264.462 125.478Z" fill="black"/>
<path d="M236.297 222.3C219.502 233.935 198.892 238.704 178.694 235.628C158.496 232.551 140.24 221.864 127.67 205.757L129.634 204.225C141.812 219.83 159.5 230.185 179.069 233.165C198.638 236.146 218.606 231.526 234.878 220.253L236.297 222.3Z" fill="black"/>
<defs>
<clipPath id="clip0_95:1997">
<rect width="282" height="253.484" fill="white" transform="translate(0.75 26.7627) rotate(-5.3741)"/>
</clipPath>
</defs>
</svg>
