<svg width="325" height="280" viewBox="0 0 325 280" fill="none" xmlns="http://www.w3.org/2000/svg">
<line x1="324.354" y1="42.3536" x2="218.354" y2="148.354" stroke="white" stroke-dasharray="150 8"/>
<g clip-path="url(#clip0_118:2829)">
<path d="M177.716 67.8834L177.308 65.6881L171.042 66.8514L168.81 54.8304L166.317 55.2933L168.956 69.5097L177.716 67.8834Z" fill="white"/>
<path d="M178.069 60.5039C178.26 64.7963 181.441 67.8103 185.755 67.6186C190.069 67.4269 192.97 64.1426 192.78 59.8503C192.589 55.558 189.408 52.544 185.094 52.7357C180.78 52.9273 177.878 56.2116 178.069 60.5039ZM190.191 59.9653C190.323 62.9203 188.546 65.2469 185.655 65.3754C182.743 65.5047 180.789 63.3439 180.658 60.3889C180.525 57.4123 182.282 55.1083 185.193 54.9789C188.084 54.8505 190.059 56.9887 190.191 59.9653Z" fill="white"/>
<path d="M207.645 68.7064L209.478 54.3587L206.961 54.0372L205.662 64.2118L199.626 53.1004L197.045 52.7707L195.212 67.1184L197.729 67.4398L199.064 56.9856L205.215 68.3959L207.645 68.7064Z" fill="white"/>
<path d="M215.363 71.0054C219.654 72.3301 223.436 70.4017 224.684 66.3582C225.932 62.3147 223.902 58.5698 219.611 57.2451L214.495 55.6657L210.247 69.4259L215.363 71.0054ZM216.253 58.5357L218.955 59.37C222.029 60.3189 223.03 62.9327 222.208 65.594C221.406 68.1934 219.011 69.8039 216.019 68.8805L213.317 68.0462L216.253 58.5357Z" fill="white"/>
<path d="M227.207 67.335C225.249 71.1594 226.521 75.3527 230.365 77.3209C234.209 79.289 238.355 77.8708 240.313 74.0465C242.272 70.2222 240.999 66.0289 237.155 64.0607C233.312 62.0925 229.165 63.5107 227.207 67.335ZM238.007 72.8656C236.659 75.4984 233.964 76.6409 231.388 75.3222C228.794 73.9937 228.165 71.1488 229.513 68.516C230.871 65.8639 233.537 64.7308 236.132 66.0593C238.707 67.378 239.365 70.2136 238.007 72.8656Z" fill="white"/>
<path d="M248.846 89.1661L257.597 77.639L255.575 76.1038L249.369 84.2782L249.682 71.6297L247.608 70.0552L238.857 81.5822L240.879 83.1174L247.256 74.7183L246.893 87.6834L248.846 89.1661Z" fill="white"/>
<path d="M274.881 128.811C275.779 131.356 277.842 132.208 279.939 131.468C281.609 130.88 282.638 129.189 282.353 127.664C283.062 128.833 284.59 129.531 286.301 128.928C288.215 128.253 289.274 126.322 288.398 123.838L286.043 117.16L272.462 121.949L274.881 128.811ZM284.786 120.281L286.128 124.089C286.559 125.311 286.05 126.269 285.032 126.628C284.014 126.987 283.037 126.553 282.606 125.331L281.263 121.524L284.786 120.281ZM279.166 122.263L280.544 126.173C281.026 127.537 280.422 128.551 279.404 128.91C278.223 129.327 277.237 128.804 276.778 127.501L275.399 123.591L279.166 122.263Z" fill="white"/>
<path d="M278.93 145.933L283.869 141.422C284.463 143.076 286.136 144.485 288.672 144.014C291.294 143.528 292.786 141.354 292.264 138.541L291.105 132.296L276.888 134.935L277.351 137.429L282.658 136.444L283.117 138.916L278.396 143.056L278.93 145.933ZM288.197 141.457C286.833 141.71 285.748 140.853 285.487 139.446L284.854 136.036L289.372 135.197L290.005 138.608C290.267 140.014 289.561 141.203 288.197 141.457Z" fill="white"/>
<path d="M279.16 150.597L293.518 149.481L293.322 146.963L278.964 148.079L279.16 150.597Z" fill="white"/>
<path d="M281.497 152.565C280.119 153.82 279.164 155.729 279.128 158.384C279.075 162.27 281.102 163.982 283.499 164.015C286.629 164.058 287.402 161.24 288.039 158.874C288.494 157.174 288.881 155.711 290.004 155.726C291.083 155.741 291.783 156.701 291.762 158.19C291.742 159.702 291.202 161.227 290.064 162.335L291.923 163.807C293.236 162.486 293.974 160.682 294.005 158.437C294.048 155.285 292.242 153.166 289.867 153.133C286.823 153.092 286.094 155.845 285.479 158.191C285.001 159.933 284.592 161.461 283.297 161.443C282.347 161.43 281.343 160.595 281.372 158.523C281.399 156.515 282.349 154.974 283.42 153.995L281.497 152.565Z" fill="white"/>
<path d="M278.199 171.696L290.233 173.5L289.587 177.81L291.785 178.139L293.451 167.023L291.253 166.693L290.607 171.003L278.573 169.2L278.199 171.696Z" fill="white"/>
<path d="M284.37 178.857C280.278 177.559 276.356 179.506 275.051 183.619C273.746 187.732 275.829 191.584 279.922 192.882C284.014 194.18 287.936 192.233 289.241 188.12C290.545 184.007 288.463 180.155 284.37 178.857ZM280.704 190.414C277.887 189.52 276.316 187.053 277.19 184.297C278.07 181.521 280.77 180.431 283.587 181.324C286.425 182.225 287.983 184.665 287.102 187.441C286.228 190.197 283.542 191.314 280.704 190.414Z" fill="white"/>
<path d="M268.172 200.545L270.162 201.52L272.943 195.839L283.841 201.174L284.948 198.913L272.06 192.604L268.172 200.545Z" fill="white"/>
<path d="M229.042 238.003L236.401 250.381L239.464 248.56L237.887 238.22L246.2 244.555L249.262 242.734L241.903 230.356L239.731 231.647L245.304 241.019L235.945 233.898L235.018 234.45L236.785 246.084L231.213 236.712L229.042 238.003Z" fill="white"/>
<path d="M214.328 243.661L224.689 255.239L227.657 254.137L227.946 238.602L225.344 239.568L225.315 242.54L218.892 244.926L216.93 242.694L214.328 243.661ZM220.34 246.77L225.422 244.882L225.425 252.676L220.34 246.77Z" fill="white"/>
<path d="M200.843 246.364L203.626 260.566L206.117 260.078L204.144 250.006L213.378 258.656L215.933 258.155L213.151 243.952L210.659 244.44L212.687 254.789L203.249 245.892L200.843 246.364Z" fill="white"/>
<path d="M191.322 246.535C188.296 246.638 186.575 248.211 185.531 249.978L187.73 251.007C188.38 249.773 189.734 248.84 191.398 248.783C194.144 248.69 196.336 250.802 196.439 253.828C196.541 256.855 194.497 259.11 191.751 259.203C190.087 259.259 188.673 258.398 187.941 257.233L185.816 258.409C186.956 260.101 188.801 261.554 191.828 261.451C195.978 261.311 199.183 258.172 199.033 253.741C198.883 249.309 195.473 246.395 191.322 246.535Z" fill="white"/>
<path d="M171.38 244.96L169.391 259.177L171.885 259.526L172.699 253.707L180.096 254.742L179.281 260.561L181.775 260.91L183.765 246.693L181.271 246.344L180.403 252.547L173.006 251.512L173.874 245.309L171.38 244.96Z" fill="white"/>
<path d="M159.181 241.575L158.548 243.707L165.584 245.797L164.447 249.626L157.555 247.578L156.922 249.71L163.814 251.758L162.75 255.338L155.713 253.248L155.08 255.379L164.538 258.189L168.639 244.385L159.181 241.575Z" fill="white"/>
<path d="M156.989 243.047C156.392 241.275 155.024 239.628 152.6 238.522C149.051 236.904 146.66 238.076 145.662 240.264C144.359 243.122 146.635 244.97 148.552 246.51C149.93 247.615 151.117 248.561 150.65 249.586C150.2 250.572 149.036 250.827 147.676 250.207C146.296 249.577 145.113 248.466 144.555 246.974L142.452 248.086C143.135 249.826 144.494 251.232 146.544 252.167C149.422 253.479 152.099 252.676 153.087 250.507C154.355 247.728 152.119 245.946 150.213 244.434C148.805 243.292 147.567 242.299 148.107 241.117C148.502 240.249 149.674 239.664 151.566 240.527C153.399 241.363 154.432 242.858 154.899 244.237L156.989 243.047Z" fill="white"/>
<path d="M140.818 232.287L134.328 242.591L130.638 240.266L129.453 242.148L138.971 248.143L140.156 246.261L136.466 243.937L142.956 233.633L140.818 232.287Z" fill="white"/>
<path d="M128.088 222.475L126.66 224.179L132.288 228.893L129.723 231.955L124.211 227.339L122.783 229.044L128.295 233.66L125.897 236.524L120.269 231.81L118.841 233.515L126.406 239.85L135.652 228.81L128.088 222.475Z" fill="white"/>
<path d="M118.925 212.63L117.103 219.039C115.734 217.949 113.579 217.631 111.677 219.358C109.711 221.144 109.585 223.766 111.501 225.876L115.754 230.559L126.415 220.878L124.717 219.008L120.737 222.622L119.053 220.768L120.885 214.788L118.925 212.63ZM113.419 221.276C114.442 220.347 115.81 220.505 116.768 221.56L119.09 224.117L115.702 227.194L113.379 224.637C112.421 223.582 112.396 222.205 113.419 221.276Z" fill="white"/>
<path d="M96.4012 184.043C100.798 183.086 102.961 179.155 102.077 175.095C101.545 172.654 100.11 170.918 98.2714 169.863L93.0118 171.009L94.4596 177.657L96.6265 177.185L95.7148 172.998L97.9028 172.522C98.6293 173.025 99.5774 174.14 99.8889 175.571C100.494 178.348 98.7967 180.877 95.8514 181.519C92.906 182.16 90.3322 180.561 89.7275 177.784C89.3839 176.206 89.9157 174.702 90.8073 173.737L89.2314 171.964C87.8588 173.453 86.9439 175.525 87.5395 178.26C88.4237 182.321 92.0042 185.001 96.4012 184.043Z" fill="white"/>
<path d="M99.8054 158.104L97.5865 158.252L98.0088 164.586L85.8586 165.396L86.0266 167.916L100.396 166.958L99.8054 158.104Z" fill="white"/>
<path d="M100.691 143.172L85.9171 147.768L85.6881 150.912L99.6401 157.6L99.8409 154.843L97.1614 153.587L97.6571 146.783L100.49 145.928L100.691 143.172ZM95.3873 147.332L94.9952 152.715L87.9344 149.495L95.3873 147.332Z" fill="white"/>
<path d="M98.8321 142.598C100.438 141.653 101.764 139.98 102.344 137.389C103.194 133.597 101.56 131.505 99.2218 130.981C96.1669 130.297 94.8323 132.896 93.7232 135.082C92.929 136.652 92.2499 138.004 91.1544 137.759C90.1009 137.523 89.6133 136.44 89.939 134.986C90.2693 133.512 91.11 132.129 92.451 131.279L90.9343 129.457C89.3775 130.48 88.2858 132.094 87.795 134.285C87.106 137.361 88.439 139.806 90.7566 140.325C93.7273 140.99 95.0055 138.444 96.0888 136.275C96.9135 134.668 97.6278 133.257 98.892 133.54C99.819 133.748 100.63 134.77 100.177 136.793C99.7379 138.752 98.4922 140.066 97.2427 140.804L98.8321 142.598Z" fill="white"/>
<path d="M96.9353 127.912C101.134 129.566 105.128 127.497 106.656 123.62C107.574 121.29 107.346 119.042 106.402 117.138L101.38 115.159L98.8789 121.507L100.948 122.322L102.523 118.325L104.612 119.148C104.937 119.972 105.105 121.431 104.567 122.797C103.522 125.448 100.697 126.61 97.8851 125.501C95.0729 124.393 93.8197 121.625 94.8645 118.974C95.4581 117.467 96.7402 116.51 98.0216 116.203L97.6967 113.847C95.7226 114.323 93.8044 115.539 92.7754 118.151C91.2478 122.028 92.737 126.258 96.9353 127.912Z" fill="white"/>
<path d="M103.137 112.701C106.801 114.947 111.079 113.999 113.336 110.317C115.592 106.635 114.496 102.392 110.832 100.147C107.169 97.9018 102.891 98.85 100.634 102.532C98.3776 106.213 99.4742 110.456 103.137 112.701ZM109.478 102.356C112 103.902 112.933 106.677 111.421 109.143C109.898 111.629 107.013 112.038 104.491 110.492C101.951 108.935 101.025 106.19 102.549 103.705C104.061 101.238 106.938 100.799 109.478 102.356Z" fill="white"/>
<path d="M127.131 92.4238L119.264 79.683L117.357 81.7714L123.673 91.312L113.469 86.028L112.115 87.5107L118.3 97.1947L108.213 91.7832L106.306 93.8716L119.72 100.538L121.54 98.5456L115.575 89.3254L125.311 94.4166L127.131 92.4238Z" fill="white"/>
</g>
<path d="M115.402 183.455C110.252 169.04 109.346 153.451 112.791 138.536C116.235 123.622 123.886 110.009 134.836 99.313L136.576 101.095C125.968 111.458 118.555 124.647 115.217 139.097C111.88 153.547 112.758 168.651 117.748 182.617L115.402 183.455Z" fill="white"/>
<path d="M168.805 79.6047C181.825 75.8929 195.574 75.546 208.764 78.5964C221.954 81.6468 234.154 87.9947 244.223 97.0458L242.557 98.898C232.803 90.1288 220.982 83.9785 208.203 81.0231C195.423 78.0676 182.102 78.4038 169.488 82L168.805 79.6047Z" fill="white"/>
<path d="M264.462 125.477C269.285 136.925 271.376 149.338 270.57 161.734C269.763 174.13 266.081 186.168 259.815 196.894L257.664 195.638C263.735 185.246 267.303 173.583 268.084 161.573C268.866 149.563 266.84 137.536 262.167 126.444L264.462 125.477Z" fill="white"/>
<path d="M236.297 222.3C219.502 233.935 198.892 238.703 178.694 235.627C158.496 232.551 140.24 221.864 127.67 205.757L129.634 204.224C141.812 219.83 159.5 230.185 179.069 233.165C198.638 236.145 218.606 231.525 234.878 220.253L236.297 222.3Z" fill="white"/>
<defs>
<clipPath id="clip0_118:2829">
<rect width="282" height="253.484" fill="white" transform="translate(0.75 26.7629) rotate(-5.3741)"/>
</clipPath>
</defs>
</svg>
