<svg width="1559" height="304" viewBox="0 0 1559 304" fill="none" xmlns="http://www.w3.org/2000/svg">
<path d="M66.2238 72.8344H68.2238V70.8344H66.2238V72.8344ZM0.62375 72.8344H-1.37625V74.8344H0.62375V72.8344ZM0.62375 14.2744V12.2744H-1.37625V14.2744H0.62375ZM207.344 14.2744H209.344V12.2744H207.344V14.2744ZM207.344 72.8344V74.8344H209.344V72.8344H207.344ZM141.744 72.8344V70.8344H139.744V72.8344H141.744ZM141.744 238.274V240.274H143.744V238.274H141.744ZM66.2238 238.274H64.2238V240.274H66.2238V238.274ZM66.2238 70.8344H0.62375V74.8344H66.2238V70.8344ZM2.62375 72.8344V14.2744H-1.37625V72.8344H2.62375ZM0.62375 16.2744H207.344V12.2744H0.62375V16.2744ZM205.344 14.2744V72.8344H209.344V14.2744H205.344ZM207.344 70.8344H141.744V74.8344H207.344V70.8344ZM139.744 72.8344V238.274H143.744V72.8344H139.744ZM141.744 236.274H66.2238V240.274H141.744V236.274ZM68.2238 238.274V72.8344H64.2238V238.274H68.2238ZM247.219 229.954L246.305 231.733L246.319 231.741L246.334 231.748L247.219 229.954ZM211.059 197.634L209.367 198.701L209.375 198.713L211.059 197.634ZM211.059 103.874L212.743 104.953L212.75 104.941L211.059 103.874ZM247.219 71.5544L246.334 69.7606L246.324 69.7655L247.219 71.5544ZM352.179 71.5544L351.284 73.3433L351.294 73.3481L352.179 71.5544ZM388.339 103.874L386.635 104.923L386.645 104.938L386.655 104.953L388.339 103.874ZM388.339 197.634L386.647 196.567L386.643 196.574L388.339 197.634ZM352.179 229.954L353.073 231.743L353.083 231.738L352.179 229.954ZM320.179 176.194L321.671 177.526L321.682 177.513L321.694 177.5L320.179 176.194ZM279.219 176.194L277.704 177.5L277.715 177.513L277.727 177.526L279.219 176.194ZM299.699 239.474C280.556 239.474 263.371 235.69 248.103 228.161L246.334 231.748C262.214 239.579 280.015 243.474 299.699 243.474V239.474ZM248.133 228.176C233.066 220.433 221.287 209.892 212.743 196.556L209.375 198.713C218.324 212.683 230.652 223.69 246.305 231.733L248.133 228.176ZM212.75 196.567C204.219 183.042 199.939 167.737 199.939 150.594H195.939C195.939 168.439 200.405 184.494 209.367 198.701L212.75 196.567ZM199.939 150.594C199.939 133.452 204.219 118.259 212.743 104.953L209.375 102.796C200.405 116.796 195.939 132.75 195.939 150.594H199.939ZM212.75 104.941C221.293 91.3986 233.064 80.868 248.113 73.3433L246.324 69.7655C230.654 77.6008 218.318 88.6169 209.367 102.807L212.75 104.941ZM248.103 73.3481C263.371 65.8191 280.556 62.0344 299.699 62.0344V58.0344C280.015 58.0344 262.214 61.9297 246.334 69.7607L248.103 73.3481ZM299.699 62.0344C319.059 62.0344 336.239 65.8208 351.284 73.3433L353.073 69.7655C337.398 61.9281 319.591 58.0344 299.699 58.0344V62.0344ZM351.294 73.3481C366.553 80.8732 378.313 91.3981 386.635 104.923L390.042 102.826C381.298 88.6174 368.951 77.5956 353.063 69.7607L351.294 73.3481ZM386.655 104.953C395.179 118.259 399.459 133.452 399.459 150.594H403.459C403.459 132.75 398.992 116.796 390.023 102.796L386.655 104.953ZM399.459 150.594C399.459 167.737 395.179 183.042 386.647 196.567L390.03 198.701C398.992 184.494 403.459 168.439 403.459 150.594H399.459ZM386.643 196.574C378.319 209.893 366.551 220.427 351.275 228.17L353.083 231.738C368.953 223.695 381.292 212.683 390.035 198.694L386.643 196.574ZM351.284 228.166C336.239 235.688 319.059 239.474 299.699 239.474V243.474C319.591 243.474 337.398 239.581 353.073 231.743L351.284 228.166ZM299.699 187.154C308.563 187.154 315.941 183.943 321.671 177.526L318.687 174.862C313.75 180.392 307.474 183.154 299.699 183.154V187.154ZM321.694 177.5C327.431 170.845 330.179 161.793 330.179 150.594H326.179C326.179 161.156 323.593 169.171 318.664 174.889L321.694 177.5ZM330.179 150.594C330.179 139.401 327.433 130.436 321.671 123.982L318.687 126.646C323.591 132.139 326.179 140.028 326.179 150.594H330.179ZM321.671 123.982C315.941 117.566 308.563 114.354 299.699 114.354V118.354C307.474 118.354 313.75 121.117 318.687 126.646L321.671 123.982ZM299.699 114.354C290.834 114.354 283.456 117.566 277.727 123.982L280.711 126.646C285.648 121.117 291.923 118.354 299.699 118.354V114.354ZM277.727 123.982C271.965 130.436 269.219 139.401 269.219 150.594H273.219C273.219 140.028 275.806 132.139 280.711 126.646L277.727 123.982ZM269.219 150.594C269.219 161.793 271.966 170.845 277.704 177.5L280.734 174.889C275.804 169.171 273.219 161.156 273.219 150.594H269.219ZM277.727 177.526C283.456 183.943 290.834 187.154 299.699 187.154V183.154C291.923 183.154 285.648 180.392 280.711 174.862L277.727 177.526ZM619.614 63.2344H621.614V61.2344H619.614V63.2344ZM591.774 278.274L590.439 276.785L590.43 276.793L590.421 276.802L591.774 278.274ZM464.094 297.794L464.585 295.856L464.572 295.852L464.559 295.849L464.094 297.794ZM425.374 281.794L423.58 280.909L422.799 282.492L424.272 283.464L425.374 281.794ZM449.694 232.514L450.894 230.914L448.966 229.469L447.9 231.629L449.694 232.514ZM475.614 244.994L475.028 246.907L475.614 244.994ZM537.374 240.514L536.007 239.054L537.374 240.514ZM547.294 210.114H549.294V204.811L545.792 208.794L547.294 210.114ZM457.054 218.434L456.09 220.187L456.107 220.196L456.125 220.206L457.054 218.434ZM426.334 188.674L424.611 189.691L424.615 189.697L424.619 189.703L426.334 188.674ZM426.334 100.034L428.049 101.063L426.334 100.034ZM457.054 70.5944L457.995 72.3591L458.005 72.3535L457.054 70.5944ZM550.814 83.0744L549.171 84.2152L552.814 89.4608V83.0744H550.814ZM550.814 63.2344V61.2344H548.814V63.2344H550.814ZM539.294 164.674L540.65 166.144L540.653 166.142L539.294 164.674ZM539.294 124.034L537.937 125.504L537.951 125.517L537.965 125.529L539.294 124.034ZM496.414 124.034L495.085 122.54L495.071 122.552L495.057 122.565L496.414 124.034ZM496.734 164.674L495.375 166.142L495.39 166.156L495.405 166.169L496.734 164.674ZM617.614 63.2344V203.394H621.614V63.2344H617.614ZM617.614 203.394C617.614 236.306 608.446 260.64 590.439 276.785L593.109 279.764C612.221 262.628 621.614 237.043 621.614 203.394H617.614ZM590.421 276.802C572.561 293.207 546.873 301.554 513.054 301.554V305.554C547.501 305.554 574.293 297.048 593.127 279.747L590.421 276.802ZM513.054 301.554C495.707 301.554 479.553 299.651 464.585 295.856L463.602 299.733C478.927 303.618 495.414 305.554 513.054 305.554V301.554ZM464.559 295.849C449.591 292.265 436.911 287.012 426.475 280.125L424.272 283.464C435.17 290.656 448.303 296.07 463.628 299.739L464.559 295.849ZM427.167 282.68L451.487 233.4L447.9 231.629L423.58 280.909L427.167 282.68ZM448.494 234.114C455.549 239.406 464.413 243.657 475.028 246.907L476.199 243.082C465.908 239.932 457.491 235.863 450.894 230.914L448.494 234.114ZM475.028 246.907C485.646 250.157 495.87 251.794 505.694 251.794V247.794C496.318 247.794 486.489 246.232 476.199 243.082L475.028 246.907ZM505.694 251.794C520.417 251.794 531.588 248.666 538.74 241.975L536.007 239.054C529.933 244.736 519.984 247.794 505.694 247.794V251.794ZM538.74 241.975C545.875 235.3 549.294 225.629 549.294 213.314H545.294C545.294 224.893 542.099 233.356 536.007 239.054L538.74 241.975ZM549.294 213.314V210.114H545.294V213.314H549.294ZM545.792 208.794C535.396 220.616 519.913 226.674 498.974 226.674V230.674C520.701 230.674 537.431 224.36 548.796 211.435L545.792 208.794ZM498.974 226.674C484.359 226.674 470.705 223.337 457.983 216.663L456.125 220.206C469.429 227.185 483.722 230.674 498.974 230.674V226.674ZM458.018 216.682C445.535 209.816 435.551 200.149 428.049 187.645L424.619 189.703C432.477 202.8 442.973 212.973 456.09 220.187L458.018 216.682ZM428.056 187.658C420.576 174.983 416.814 160.514 416.814 144.194H412.814C412.814 161.155 416.732 176.339 424.611 189.691L428.056 187.658ZM416.814 144.194C416.814 127.874 420.576 113.518 428.049 101.063L424.619 99.0054C416.731 112.151 412.814 127.235 412.814 144.194H416.814ZM428.049 101.063C435.548 88.5648 445.524 79.0101 457.995 72.3591L456.113 68.8297C442.983 75.8321 432.48 85.9041 424.619 99.0054L428.049 101.063ZM458.005 72.3535C470.724 65.4731 484.369 62.0344 498.974 62.0344V58.0344C483.711 58.0344 469.411 61.6357 456.102 68.8353L458.005 72.3535ZM498.974 62.0344C522.415 62.0344 538.981 69.5411 549.171 84.2152L552.456 81.9336C541.313 65.8877 523.319 58.0344 498.974 58.0344V62.0344ZM552.814 83.0744V63.2344H548.814V83.0744H552.814ZM550.814 65.2344H619.614V61.2344H550.814V65.2344ZM518.174 174.354C527.139 174.354 534.685 171.65 540.65 166.144L537.937 163.205C532.809 167.939 526.275 170.354 518.174 170.354V174.354ZM540.653 166.142C546.848 160.405 549.934 153.034 549.934 144.194H545.934C545.934 151.995 543.259 158.277 537.935 163.207L540.653 166.142ZM549.934 144.194C549.934 135.354 546.846 128.072 540.622 122.54L537.965 125.529C543.261 130.237 545.934 136.395 545.934 144.194H549.934ZM540.65 122.565C534.685 117.059 527.139 114.354 518.174 114.354V118.354C526.275 118.354 532.809 120.77 537.937 125.504L540.65 122.565ZM518.174 114.354C509.008 114.354 501.261 117.05 495.085 122.54L497.742 125.529C503.087 120.779 509.846 118.354 518.174 118.354V114.354ZM495.057 122.565C489.056 128.104 486.094 135.38 486.094 144.194H490.094C490.094 136.369 492.678 130.204 497.77 125.504L495.057 122.565ZM486.094 144.194C486.094 153.034 489.179 160.405 495.375 166.142L498.093 163.207C492.768 158.277 490.094 151.995 490.094 144.194H486.094ZM495.405 166.169C501.571 171.65 509.207 174.354 518.174 174.354V170.354C510.074 170.354 503.416 167.938 498.062 163.18L495.405 166.169ZM836.874 167.554V169.554H838.753L838.87 167.679L836.874 167.554ZM715.274 167.554V165.554H712.355L713.409 168.276L715.274 167.554ZM728.074 182.914L727.036 184.624L727.058 184.638L727.081 184.651L728.074 182.914ZM769.674 185.154L768.996 183.273L768.984 183.277L768.971 183.282L769.674 185.154ZM786.954 175.234L788.374 173.826L787.141 172.582L785.745 173.641L786.954 175.234ZM824.714 213.314L826.194 214.66L827.471 213.255L826.134 211.906L824.714 213.314ZM692.554 229.954L691.669 231.748L691.679 231.753L691.688 231.757L692.554 229.954ZM655.434 197.314L657.125 196.247L655.434 197.314ZM655.114 103.874L653.422 102.807L653.418 102.814L655.114 103.874ZM690.634 71.5544L689.729 69.7706L689.719 69.7758L690.634 71.5544ZM789.834 70.5944L788.961 72.3937L788.971 72.3987L789.834 70.5944ZM824.714 101.634L823.018 102.694L823.024 102.704L823.03 102.713L824.714 101.634ZM723.594 115.394L724.867 116.936L723.594 115.394ZM713.994 132.674L712.033 132.282L711.554 134.674H713.994V132.674ZM770.314 132.674V134.674H772.767L772.273 132.271L770.314 132.674ZM760.714 115.714L759.401 117.224L759.42 117.24L759.44 117.256L760.714 115.714ZM835.834 150.594C835.834 151.579 835.521 157.136 834.878 167.43L838.87 167.679C839.507 157.492 839.834 151.743 839.834 150.594H835.834ZM836.874 165.554H715.274V169.554H836.874V165.554ZM713.409 168.276C716.125 175.295 720.679 180.765 727.036 184.624L729.112 181.205C723.521 177.811 719.542 173.041 717.139 166.832L713.409 168.276ZM727.081 184.651C733.435 188.281 741.268 190.034 750.474 190.034V186.034C741.759 186.034 734.659 184.374 729.066 181.178L727.081 184.651ZM750.474 190.034C758.304 190.034 764.961 189.058 770.376 187.027L768.971 183.282C764.147 185.091 758.004 186.034 750.474 186.034V190.034ZM770.351 187.036C775.931 185.027 781.87 181.602 788.163 176.828L785.745 173.641C779.664 178.254 774.083 181.441 768.996 183.273L770.351 187.036ZM785.534 176.643L823.294 214.723L826.134 211.906L788.374 173.826L785.534 176.643ZM823.234 211.969C806.662 230.198 781.789 239.474 748.234 239.474V243.474C782.518 243.474 808.632 233.977 826.194 214.66L823.234 211.969ZM748.234 239.474C727.357 239.474 709.103 235.679 693.419 228.151L691.688 231.757C708.005 239.589 726.87 243.474 748.234 243.474V239.474ZM693.439 228.161C677.739 220.416 665.658 209.775 657.125 196.247L653.742 198.381C662.703 212.587 675.368 223.706 691.669 231.748L693.439 228.161ZM657.125 196.247C648.591 182.718 644.314 167.518 644.314 150.594H640.314C640.314 168.231 644.783 184.178 653.742 198.381L657.125 196.247ZM644.314 150.594C644.314 133.442 648.492 118.242 656.81 104.934L653.418 102.814C644.669 116.813 640.314 132.76 640.314 150.594H644.314ZM656.805 104.941C665.357 91.3847 676.925 80.8537 691.548 73.333L689.719 69.7758C674.476 77.6152 662.364 88.6308 653.422 102.807L656.805 104.941ZM691.538 73.3382C706.376 65.8148 723.021 62.0344 741.514 62.0344V58.0344C722.46 58.0344 705.185 61.934 689.729 69.7706L691.538 73.3382ZM741.514 62.0344C758.948 62.0344 774.752 65.4983 788.961 72.3937L790.707 68.7951C775.902 61.6105 759.493 58.0344 741.514 58.0344V62.0344ZM788.971 72.3987C803.353 79.2771 814.689 89.3678 823.018 102.694L826.41 100.574C817.672 86.5943 805.755 75.9917 790.697 68.7901L788.971 72.3987ZM823.03 102.713C831.537 115.993 835.834 131.924 835.834 150.594H839.834C839.834 131.292 835.384 114.583 826.398 100.556L823.03 102.713ZM742.154 107.314C734.307 107.314 727.645 109.453 722.32 113.852L724.867 116.936C729.356 113.229 735.068 111.314 742.154 111.314V107.314ZM722.32 113.852C716.993 118.253 713.598 124.457 712.033 132.282L715.955 133.067C717.377 125.959 720.382 120.642 724.867 116.936L722.32 113.852ZM713.994 134.674H770.314V130.674H713.994V134.674ZM772.273 132.271C770.703 124.648 767.302 118.562 761.988 114.172L759.44 117.256C763.939 120.973 766.938 126.194 768.355 133.078L772.273 132.271ZM762.026 114.205C756.702 109.575 750.027 107.314 742.154 107.314V111.314C749.214 111.314 754.912 113.32 759.401 117.224L762.026 114.205ZM989.616 232.194L990.605 233.933L992.047 233.113L991.508 231.544L989.616 232.194ZM888.496 223.874L887.156 225.359L887.162 225.365L887.169 225.371L888.496 223.874ZM868.656 125.634H870.656V123.634H868.656V125.634ZM844.656 125.634H842.656V127.634H844.656V125.634ZM844.656 72.8344V70.8344H842.656V72.8344H844.656ZM868.656 72.8344V74.8344H870.656V72.8344H868.656ZM868.656 23.8744V21.8744H866.656V23.8744H868.656ZM940.976 23.8744H942.976V21.8744H940.976V23.8744ZM940.976 72.8344H938.976V74.8344H940.976V72.8344ZM976.816 72.8344H978.816V70.8344H976.816V72.8344ZM976.816 125.634V127.634H978.816V125.634H976.816ZM940.976 125.634V123.634H938.976V125.634H940.976ZM945.136 182.274L943.671 183.635L945.136 182.274ZM972.336 181.954L974.228 181.304L973.375 178.825L971.21 180.302L972.336 181.954ZM988.628 230.456C978.163 236.406 963.723 239.474 945.136 239.474V243.474C964.096 243.474 979.31 240.356 990.605 233.933L988.628 230.456ZM945.136 239.474C920.902 239.474 902.564 233.68 889.823 222.378L887.169 225.371C900.882 237.535 920.303 243.474 945.136 243.474V239.474ZM889.837 222.39C877.156 210.936 870.656 193.744 870.656 170.434H866.656C866.656 194.485 873.383 212.919 887.156 225.359L889.837 222.39ZM870.656 170.434V125.634H866.656V170.434H870.656ZM868.656 123.634H844.656V127.634H868.656V123.634ZM846.656 125.634V72.8344H842.656V125.634H846.656ZM844.656 74.8344H868.656V70.8344H844.656V74.8344ZM870.656 72.8344V23.8744H866.656V72.8344H870.656ZM868.656 25.8744H940.976V21.8744H868.656V25.8744ZM938.976 23.8744V72.8344H942.976V23.8744H938.976ZM940.976 74.8344H976.816V70.8344H940.976V74.8344ZM974.816 72.8344V125.634H978.816V72.8344H974.816ZM976.816 123.634H940.976V127.634H976.816V123.634ZM938.976 125.634V169.794H942.976V125.634H938.976ZM938.976 169.794C938.976 175.472 940.458 180.176 943.671 183.635L946.602 180.914C944.267 178.399 942.976 174.783 942.976 169.794H938.976ZM943.671 183.635C946.862 187.072 951.041 188.754 956.016 188.754V184.754C952.031 184.754 948.957 183.45 946.602 180.914L943.671 183.635ZM956.016 188.754C962.567 188.754 968.408 187.054 973.463 183.607L971.21 180.302C966.878 183.255 961.839 184.754 956.016 184.754V188.754ZM970.445 182.605L987.725 232.845L991.508 231.544L974.228 181.304L970.445 182.605ZM1181.28 79.5544L1179.87 80.9686L1179.88 80.9744L1179.88 80.9801L1181.28 79.5544ZM1201.12 238.274V240.274H1203.12V238.274H1201.12ZM1128.8 238.274H1126.8V240.274H1128.8V238.274ZM1087.52 129.474L1086.03 128.146L1086.03 128.149L1087.52 129.474ZM1080.16 238.274V240.274H1082.16V238.274H1080.16ZM1007.84 238.274H1005.84V240.274H1007.84V238.274ZM1007.84 0.834396V-1.1656H1005.84V0.834396H1007.84ZM1080.16 0.834396H1082.16V-1.1656H1080.16V0.834396ZM1080.16 77.3144H1078.16V81.6629L1081.47 78.8329L1080.16 77.3144ZM1129.44 62.0344C1150.56 62.0344 1167.3 68.3942 1179.87 80.9686L1182.7 78.1402C1169.25 64.6879 1151.42 58.0344 1129.44 58.0344V62.0344ZM1179.88 80.9801C1192.59 93.4845 1199.12 112.505 1199.12 138.434H1203.12C1203.12 111.883 1196.43 91.651 1182.69 78.1287L1179.88 80.9801ZM1199.12 138.434V238.274H1203.12V138.434H1199.12ZM1201.12 236.274H1128.8V240.274H1201.12V236.274ZM1130.8 238.274V150.914H1126.8V238.274H1130.8ZM1130.8 150.914C1130.8 140.711 1129 132.699 1125.07 127.194C1121.06 121.564 1115.04 118.834 1107.36 118.834V122.834C1113.98 122.834 1118.68 125.119 1121.82 129.515C1125.04 134.037 1126.8 141.065 1126.8 150.914H1130.8ZM1107.36 118.834C1098.72 118.834 1091.55 121.934 1086.03 128.146L1089.02 130.803C1093.74 125.495 1099.79 122.834 1107.36 122.834V118.834ZM1086.03 128.149C1080.64 134.234 1078.16 143.679 1078.16 156.034H1082.16C1082.16 144.069 1084.59 135.809 1089.02 130.8L1086.03 128.149ZM1078.16 156.034V238.274H1082.16V156.034H1078.16ZM1080.16 236.274H1007.84V240.274H1080.16V236.274ZM1009.84 238.274V0.834396H1005.84V238.274H1009.84ZM1007.84 2.8344H1080.16V-1.1656H1007.84V2.8344ZM1078.16 0.834396V77.3144H1082.16V0.834396H1078.16ZM1081.47 78.8329C1094.51 67.6544 1110.46 62.0344 1129.44 62.0344V58.0344C1109.6 58.0344 1092.7 63.9344 1078.86 75.7959L1081.47 78.8329ZM1420.94 167.554V169.554H1422.82L1422.93 167.679L1420.94 167.554ZM1299.34 167.554V165.554H1296.42L1297.47 168.276L1299.34 167.554ZM1312.14 182.914L1311.1 184.624L1311.12 184.638L1311.14 184.651L1312.14 182.914ZM1353.74 185.154L1353.06 183.273L1353.05 183.277L1353.03 183.282L1353.74 185.154ZM1371.02 175.234L1372.44 173.826L1371.2 172.582L1369.81 173.641L1371.02 175.234ZM1408.78 213.314L1410.26 214.66L1411.53 213.255L1410.2 211.906L1408.78 213.314ZM1276.62 229.954L1275.73 231.748L1275.74 231.753L1275.75 231.757L1276.62 229.954ZM1239.5 197.314L1241.19 196.247L1239.5 197.314ZM1239.18 103.874L1237.48 102.807L1237.48 102.814L1239.18 103.874ZM1274.7 71.5544L1273.79 69.7706L1273.78 69.7758L1274.7 71.5544ZM1373.9 70.5944L1373.02 72.3937L1373.03 72.3987L1373.9 70.5944ZM1408.78 101.634L1407.08 102.694L1407.09 102.704L1407.09 102.713L1408.78 101.634ZM1307.66 115.394L1308.93 116.936L1307.66 115.394ZM1298.06 132.674L1296.1 132.282L1295.62 134.674H1298.06V132.674ZM1354.38 132.674V134.674H1356.83L1356.34 132.271L1354.38 132.674ZM1344.78 115.714L1343.46 117.224L1343.48 117.24L1343.5 117.256L1344.78 115.714ZM1419.9 150.594C1419.9 151.579 1419.58 157.136 1418.94 167.43L1422.93 167.679C1423.57 157.492 1423.9 151.743 1423.9 150.594H1419.9ZM1420.94 165.554H1299.34V169.554H1420.94V165.554ZM1297.47 168.276C1300.19 175.295 1304.74 180.765 1311.1 184.624L1313.17 181.205C1307.58 177.811 1303.6 173.041 1301.2 166.832L1297.47 168.276ZM1311.14 184.651C1317.5 188.281 1325.33 190.034 1334.54 190.034V186.034C1325.82 186.034 1318.72 184.374 1313.13 181.178L1311.14 184.651ZM1334.54 190.034C1342.37 190.034 1349.02 189.058 1354.44 187.027L1353.03 183.282C1348.21 185.091 1342.07 186.034 1334.54 186.034V190.034ZM1354.41 187.036C1359.99 185.027 1365.93 181.602 1372.22 176.828L1369.81 173.641C1363.73 178.254 1358.15 181.441 1353.06 183.273L1354.41 187.036ZM1369.6 176.643L1407.36 214.723L1410.2 211.906L1372.44 173.826L1369.6 176.643ZM1407.3 211.969C1390.72 230.198 1365.85 239.474 1332.3 239.474V243.474C1366.58 243.474 1392.69 233.977 1410.26 214.66L1407.3 211.969ZM1332.3 239.474C1311.42 239.474 1293.17 235.679 1277.48 228.151L1275.75 231.757C1292.07 239.589 1310.93 243.474 1332.3 243.474V239.474ZM1277.5 228.161C1261.8 220.416 1249.72 209.775 1241.19 196.247L1237.8 198.381C1246.77 212.587 1259.43 223.706 1275.73 231.748L1277.5 228.161ZM1241.19 196.247C1232.65 182.718 1228.38 167.518 1228.38 150.594H1224.38C1224.38 168.231 1228.85 184.178 1237.8 198.381L1241.19 196.247ZM1228.38 150.594C1228.38 133.442 1232.55 118.242 1240.87 104.934L1237.48 102.814C1228.73 116.813 1224.38 132.76 1224.38 150.594H1228.38ZM1240.87 104.941C1249.42 91.3847 1260.99 80.8537 1275.61 73.333L1273.78 69.7758C1258.54 77.6152 1246.43 88.6308 1237.48 102.807L1240.87 104.941ZM1275.6 73.3382C1290.44 65.8148 1307.08 62.0344 1325.58 62.0344V58.0344C1306.52 58.0344 1289.25 61.934 1273.79 69.7706L1275.6 73.3382ZM1325.58 62.0344C1343.01 62.0344 1358.81 65.4983 1373.02 72.3937L1374.77 68.7951C1359.96 61.6105 1343.56 58.0344 1325.58 58.0344V62.0344ZM1373.03 72.3987C1387.42 79.2771 1398.75 89.3678 1407.08 102.694L1410.47 100.574C1401.73 86.5943 1389.82 75.9917 1374.76 68.7901L1373.03 72.3987ZM1407.09 102.713C1415.6 115.993 1419.9 131.924 1419.9 150.594H1423.9C1423.9 131.292 1419.45 114.583 1410.46 100.556L1407.09 102.713ZM1326.22 107.314C1318.37 107.314 1311.71 109.453 1306.38 113.852L1308.93 116.936C1313.42 113.229 1319.13 111.314 1326.22 111.314V107.314ZM1306.38 113.852C1301.06 118.253 1297.66 124.457 1296.1 132.282L1300.02 133.067C1301.44 125.959 1304.44 120.642 1308.93 116.936L1306.38 113.852ZM1298.06 134.674H1354.38V130.674H1298.06V134.674ZM1356.34 132.271C1354.77 124.648 1351.36 118.562 1346.05 114.172L1343.5 117.256C1348 120.973 1351 126.194 1352.42 133.078L1356.34 132.271ZM1346.09 114.205C1340.76 109.575 1334.09 107.314 1326.22 107.314V111.314C1333.28 111.314 1338.97 113.32 1343.46 117.224L1346.09 114.205ZM1513.52 82.1144H1511.52V87.4624L1515.03 83.4268L1513.52 82.1144ZM1570.16 60.0344H1572.16V58.0344H1570.16V60.0344ZM1570.16 124.034L1569.87 126.013L1572.16 126.353V124.034H1570.16ZM1517.04 238.274V240.274H1519.04V238.274H1517.04ZM1444.72 238.274H1442.72V240.274H1444.72V238.274ZM1444.72 63.2344V61.2344H1442.72V63.2344H1444.72ZM1513.52 63.2344H1515.52V61.2344H1513.52V63.2344ZM1515.03 83.4268C1527.35 69.2594 1545.6 62.0344 1570.16 62.0344V58.0344C1544.79 58.0344 1525.29 65.5294 1512.01 80.802L1515.03 83.4268ZM1568.16 60.0344V124.034H1572.16V60.0344H1568.16ZM1570.45 122.056C1564.61 121.191 1559.18 120.754 1554.16 120.754V124.754C1558.95 124.754 1564.19 125.171 1569.87 126.013L1570.45 122.056ZM1554.16 120.754C1541.47 120.754 1531.59 123.984 1524.89 130.792C1518.21 137.594 1515.04 147.628 1515.04 160.514H1519.04C1519.04 148.228 1522.06 139.381 1527.74 133.596C1533.43 127.818 1542.1 124.754 1554.16 124.754V120.754ZM1515.04 160.514V238.274H1519.04V160.514H1515.04ZM1517.04 236.274H1444.72V240.274H1517.04V236.274ZM1446.72 238.274V63.2344H1442.72V238.274H1446.72ZM1444.72 65.2344H1513.52V61.2344H1444.72V65.2344ZM1511.52 63.2344V82.1144H1515.52V63.2344H1511.52Z" fill="black"/>
</svg>
