<svg width="696" height="99" viewBox="0 0 696 99" fill="none" xmlns="http://www.w3.org/2000/svg">
    <path d="M72.23 42.14V40.14H70.4522L70.2438 41.9055L72.23 42.14ZM70.02 60.86L68.0338 60.6255L67.77 62.86H70.02V60.86ZM86.27 60.86H88.27V58.86H86.27V60.86ZM86.27 77.63V79.63H88.27V77.63H86.27ZM67.94 77.63V75.63H66.1788L65.9561 77.377L67.94 77.63ZM65.47 97V99H67.2312L67.4539 97.253L65.47 97ZM47.79 97L45.8061 96.747L45.5188 99H47.79V97ZM50.26 77.63L52.2439 77.883L52.5312 75.63H50.26V77.63ZM34.27 77.63V75.63H32.5088L32.2861 77.377L34.27 77.63ZM31.8 97V99H33.5612L33.7839 97.253L31.8 97ZM14.12 97L12.1361 96.747L11.8488 99H14.12V97ZM16.59 77.63L18.5739 77.883L18.8612 75.63H16.59V77.63ZM0.21 77.63H-1.79V79.63H0.21V77.63ZM0.21 60.86V58.86H-1.79V60.86H0.21ZM18.67 60.86V62.86H20.4478L20.6562 61.0945L18.67 60.86ZM20.88 42.14L22.8662 42.3745L23.13 40.14H20.88V42.14ZM4.5 42.14H2.5V44.14H4.5V42.14ZM4.5 25.37V23.37H2.5V25.37H4.5ZM22.96 25.37V27.37H24.7212L24.9439 25.623L22.96 25.37ZM25.43 5.99999V3.99999H23.6688L23.4461 5.74701L25.43 5.99999ZM43.11 5.99999L45.0939 6.25298L45.3812 3.99999H43.11V5.99999ZM40.64 25.37L38.6561 25.117L38.3688 27.37H40.64V25.37ZM56.63 25.37V27.37H58.3912L58.6139 25.623L56.63 25.37ZM59.1 5.99999V3.99999H57.3388L57.1161 5.74701L59.1 5.99999ZM76.78 5.99999L78.7639 6.25298L79.0512 3.99999H76.78V5.99999ZM74.31 25.37L72.3261 25.117L72.0388 27.37H74.31V25.37ZM90.69 25.37H92.69V23.37H90.69V25.37ZM90.69 42.14V44.14H92.69V42.14H90.69ZM54.55 42.14L56.5362 42.3745L56.8 40.14H54.55V42.14ZM38.56 42.14V40.14H36.7822L36.5738 41.9055L38.56 42.14ZM36.35 60.86L34.3638 60.6255L34.1 62.86H36.35V60.86ZM52.34 60.86V62.86H54.1178L54.3262 61.0945L52.34 60.86ZM70.2438 41.9055L68.0338 60.6255L72.0062 61.0945L74.2162 42.3745L70.2438 41.9055ZM70.02 62.86H86.27V58.86H70.02V62.86ZM84.27 60.86V77.63H88.27V60.86H84.27ZM86.27 75.63H67.94V79.63H86.27V75.63ZM65.9561 77.377L63.4861 96.747L67.4539 97.253L69.9239 77.883L65.9561 77.377ZM65.47 95H47.79V99H65.47V95ZM49.7739 97.253L52.2439 77.883L48.2761 77.377L45.8061 96.747L49.7739 97.253ZM50.26 75.63H34.27V79.63H50.26V75.63ZM32.2861 77.377L29.8161 96.747L33.7839 97.253L36.2539 77.883L32.2861 77.377ZM31.8 95H14.12V99H31.8V95ZM16.1039 97.253L18.5739 77.883L14.6061 77.377L12.1361 96.747L16.1039 97.253ZM16.59 75.63H0.21V79.63H16.59V75.63ZM2.21 77.63V60.86H-1.79V77.63H2.21ZM0.21 62.86H18.67V58.86H0.21V62.86ZM20.6562 61.0945L22.8662 42.3745L18.8938 41.9055L16.6838 60.6255L20.6562 61.0945ZM20.88 40.14H4.5V44.14H20.88V40.14ZM6.5 42.14V25.37H2.5V42.14H6.5ZM4.5 27.37H22.96V23.37H4.5V27.37ZM24.9439 25.623L27.4139 6.25298L23.4461 5.74701L20.9761 25.117L24.9439 25.623ZM25.43 7.99999H43.11V3.99999H25.43V7.99999ZM41.1261 5.74701L38.6561 25.117L42.6239 25.623L45.0939 6.25298L41.1261 5.74701ZM40.64 27.37H56.63V23.37H40.64V27.37ZM58.6139 25.623L61.0839 6.25298L57.1161 5.74701L54.6461 25.117L58.6139 25.623ZM59.1 7.99999H76.78V3.99999H59.1V7.99999ZM74.7961 5.74701L72.3261 25.117L76.2939 25.623L78.7639 6.25298L74.7961 5.74701ZM74.31 27.37H90.69V23.37H74.31V27.37ZM88.69 25.37V42.14H92.69V25.37H88.69ZM90.69 40.14H72.23V44.14H90.69V40.14ZM54.55 40.14H38.56V44.14H54.55V40.14ZM36.5738 41.9055L34.3638 60.6255L38.3362 61.0945L40.5462 42.3745L36.5738 41.9055ZM36.35 62.86H52.34V58.86H36.35V62.86ZM54.3262 61.0945L56.5362 42.3745L52.5638 41.9055L50.3538 60.6255L54.3262 61.0945ZM173.041 26.54H175.041V24.54H173.041V26.54ZM173.041 97V99H175.041V97H173.041ZM149.511 97H147.511V99H149.511V97ZM149.511 89.46H151.511V84.2868L148.031 88.1147L149.511 89.46ZM140.151 95.96L139.401 94.1061L140.151 95.96ZM106.741 90.11L105.327 91.5242L105.332 91.5299L105.338 91.5355L106.741 90.11ZM98.6809 26.54V24.54H96.6809V26.54H98.6809ZM123.381 26.54H125.381V24.54H123.381V26.54ZM144.571 73.08L143.089 71.737L143.087 71.7394L144.571 73.08ZM148.341 26.54V24.54H146.341V26.54H148.341ZM171.041 26.54V97H175.041V26.54H171.041ZM173.041 95H149.511V99H173.041V95ZM151.511 97V89.46H147.511V97H151.511ZM148.031 88.1147C145.636 90.7489 142.767 92.7435 139.401 94.1061L140.901 97.8139C144.815 96.2298 148.186 93.8911 150.991 90.8053L148.031 88.1147ZM139.401 94.1061C136.008 95.4793 132.407 96.17 128.581 96.17V100.17C132.902 100.17 137.014 99.3873 140.901 97.8139L139.401 94.1061ZM128.581 96.17C119.9 96.17 113.161 93.6217 108.144 88.6845L105.338 91.5355C111.241 97.345 119.062 100.17 128.581 100.17V96.17ZM108.155 88.6958C103.289 83.8298 100.681 76.3684 100.681 65.93H96.6809C96.6809 76.985 99.446 85.6435 105.327 91.5242L108.155 88.6958ZM100.681 65.93V26.54H96.6809V65.93H100.681ZM98.6809 28.54H123.381V24.54H98.6809V28.54ZM121.381 26.54V61.9H125.381V26.54H121.381ZM121.381 61.9C121.381 67.3598 122.396 71.7815 124.825 74.7395L127.916 72.2005C126.359 70.3052 125.381 67.0136 125.381 61.9H121.381ZM124.825 74.7395C127.28 77.7277 130.81 79.11 135.081 79.11V75.11C131.725 75.11 129.448 74.0656 127.916 72.2005L124.825 74.7395ZM135.081 79.11C139.498 79.11 143.218 77.5622 146.055 74.4206L143.087 71.7394C141.071 73.9712 138.464 75.11 135.081 75.11V79.11ZM146.053 74.423C149.033 71.1341 150.341 66.3559 150.341 60.47H146.341C146.341 65.8508 145.135 69.4792 143.089 71.737L146.053 74.423ZM150.341 60.47V26.54H146.341V60.47H150.341ZM148.341 28.54H173.041V24.54H148.341V28.54ZM299.451 33.17L298.025 34.5723L298.031 34.5783L298.036 34.5842L299.451 33.17ZM307.251 97V99H309.251V97H307.251ZM282.551 97H280.551V99H282.551V97ZM279.691 49.81L278.112 51.0379L278.126 51.0558L278.14 51.0733L279.691 49.81ZM262.921 50.2L264.432 51.5099L262.921 50.2ZM259.541 97V99H261.541V97H259.541ZM234.841 97H232.841V99H234.841V97ZM211.701 97V99H213.701V97H211.701ZM187.001 97H185.001V99H187.001V97ZM187.001 26.54V24.54H185.001V26.54H187.001ZM210.531 26.54H212.531V24.54H210.531V26.54ZM210.531 33.95H208.531V39.1232L212.011 35.2953L210.531 33.95ZM219.761 27.58L220.488 29.4431L220.499 29.4386L220.511 29.4339L219.761 27.58ZM244.851 28.1L245.696 26.2876V26.2876L244.851 28.1ZM254.341 36.42L252.665 37.5113L254.194 39.8592L255.917 37.6505L254.341 36.42ZM264.871 28.23L264.052 26.4055V26.4055L264.871 28.23ZM278.781 27.37C287.02 27.37 293.357 29.8258 298.025 34.5723L300.877 31.7677C295.317 26.1142 287.875 23.37 278.781 23.37V27.37ZM298.036 34.5842C302.726 39.2741 305.251 46.516 305.251 56.7H309.251C309.251 45.9106 306.575 37.4659 300.865 31.7558L298.036 34.5842ZM305.251 56.7V97H309.251V56.7H305.251ZM307.251 95H282.551V99H307.251V95ZM284.551 97V60.73H280.551V97H284.551ZM284.551 60.73C284.551 55.6012 283.573 51.4087 281.241 48.5467L278.14 51.0733C279.622 52.8913 280.551 55.9788 280.551 60.73H284.551ZM281.269 48.5821C279.014 45.6824 275.79 44.3 271.891 44.3V48.3C274.752 48.3 276.727 49.2576 278.112 51.0379L281.269 48.5821ZM271.891 44.3C267.638 44.3 264.077 45.8122 261.409 48.8901L264.432 51.5099C266.271 49.3877 268.69 48.3 271.891 48.3V44.3ZM261.409 48.8901C258.71 52.0051 257.541 56.5097 257.541 62.03H261.541C261.541 56.977 262.625 53.5949 264.432 51.5099L261.409 48.8901ZM257.541 62.03V97H261.541V62.03H257.541ZM259.541 95H234.841V99H259.541V95ZM236.841 97V60.73H232.841V97H236.841ZM236.841 60.73C236.841 55.7324 235.928 51.621 233.784 48.7191C231.557 45.7039 228.233 44.3 224.181 44.3V48.3C227.235 48.3 229.241 49.3011 230.567 51.0959C231.977 53.004 232.841 56.1076 232.841 60.73H236.841ZM224.181 44.3C219.858 44.3 216.246 45.8012 213.569 48.8901L216.592 51.5099C218.422 49.3988 220.877 48.3 224.181 48.3V44.3ZM213.569 48.8901C210.87 52.0051 209.701 56.5097 209.701 62.03H213.701C213.701 56.977 214.785 53.5949 216.592 51.5099L213.569 48.8901ZM209.701 62.03V97H213.701V62.03H209.701ZM211.701 95H187.001V99H211.701V95ZM189.001 97V26.54H185.001V97H189.001ZM187.001 28.54H210.531V24.54H187.001V28.54ZM208.531 26.54V33.95H212.531V26.54H208.531ZM212.011 35.2953C214.406 32.6606 217.226 30.7161 220.488 29.4431L219.034 25.7168C215.189 27.2173 211.856 29.5194 209.051 32.6047L212.011 35.2953ZM220.511 29.4339C223.894 28.0647 227.58 27.37 231.591 27.37V23.37C227.108 23.37 222.908 24.1487 219.01 25.7261L220.511 29.4339ZM231.591 27.37C236.282 27.37 240.406 28.233 244.005 29.9124L245.696 26.2876C241.495 24.327 236.78 23.37 231.591 23.37V27.37ZM244.005 29.9124C247.555 31.5689 250.435 34.0869 252.665 37.5113L256.017 35.3287C253.393 31.2998 249.947 28.2711 245.696 26.2876L244.005 29.9124ZM255.917 37.6505C258.484 34.3625 261.73 31.8323 265.69 30.0545L264.052 26.4055C259.518 28.441 255.744 31.3708 252.764 35.1895L255.917 37.6505ZM265.69 30.0545C269.659 28.2725 274.014 27.37 278.781 27.37V23.37C273.495 23.37 268.576 24.3741 264.052 26.4055L265.69 30.0545ZM382.641 29.79L381.654 31.5301L381.667 31.537L382.641 29.79ZM395.121 42.53L393.366 43.4896L393.375 43.506L393.384 43.5223L395.121 42.53ZM395.121 80.88L393.377 79.8995L393.372 79.9099L393.366 79.9204L395.121 80.88ZM382.641 93.75L383.627 95.4901L383.636 95.4847L382.641 93.75ZM344.421 89.98L345.951 88.6925L342.421 84.4959V89.98H344.421ZM344.421 97V99H346.421V97H344.421ZM320.891 97H318.891V99H320.891V97ZM320.891 0.539995V-1.46H318.891V0.539995H320.891ZM345.591 0.539995H347.591V-1.46H345.591V0.539995ZM345.591 32.65H343.591V37.5406L347.017 34.0514L345.591 32.65ZM370.681 74.12L372.137 75.4907L372.147 75.4802L372.157 75.4695L370.681 74.12ZM370.681 49.42L372.137 48.0493V48.0493L370.681 49.42ZM349.361 49.42L347.904 48.0493V48.0493L349.361 49.42ZM349.361 74.12L347.884 75.4695L347.894 75.4802L347.904 75.4907L349.361 74.12ZM365.221 27.37C371.314 27.37 376.777 28.7662 381.655 31.53L383.627 28.05C378.104 24.9205 371.953 23.37 365.221 23.37V27.37ZM381.667 31.537C386.609 34.2917 390.505 38.2583 393.366 43.4896L396.875 41.5704C393.669 35.7084 389.245 31.1817 383.614 28.043L381.667 31.537ZM393.384 43.5223C396.306 48.6353 397.801 54.6526 397.801 61.64H401.801C401.801 54.0674 400.175 47.3447 396.857 41.5377L393.384 43.5223ZM397.801 61.64C397.801 68.6266 396.306 74.693 393.377 79.8995L396.864 81.8605C400.175 75.9737 401.801 69.2134 401.801 61.64H397.801ZM393.366 79.9204C390.502 85.1563 386.6 89.1724 381.645 92.0153L383.636 95.4847C389.255 92.2609 393.672 87.6971 396.875 81.8396L393.366 79.9204ZM381.655 92.01C376.777 94.7738 371.314 96.17 365.221 96.17V100.17C371.953 100.17 378.104 98.6195 383.627 95.49L381.655 92.01ZM365.221 96.17C356.348 96.17 350.057 93.5733 345.951 88.6925L342.89 91.2675C347.971 97.3067 355.547 100.17 365.221 100.17V96.17ZM342.421 89.98V97H346.421V89.98H342.421ZM344.421 95H320.891V99H344.421V95ZM322.891 97V0.539995H318.891V97H322.891ZM320.891 2.54H345.591V-1.46H320.891V2.54ZM343.591 0.539995V32.65H347.591V0.539995H343.591ZM347.017 34.0514C351.327 29.6634 357.31 27.37 365.221 27.37V23.37C356.492 23.37 349.387 25.9299 344.164 31.2486L347.017 34.0514ZM360.021 80.54C364.862 80.54 368.957 78.8697 372.137 75.4907L369.224 72.7493C366.858 75.2636 363.846 76.54 360.021 76.54V80.54ZM372.157 75.4695C375.355 71.9715 376.841 67.2786 376.841 61.64H372.841C372.841 66.5748 371.553 70.2019 369.204 72.7705L372.157 75.4695ZM376.841 61.64C376.841 56.0811 375.351 51.4637 372.137 48.0493L369.224 50.7907C371.557 53.2696 372.841 56.7989 372.841 61.64H376.841ZM372.137 48.0493C368.957 44.6703 364.862 43 360.021 43V47C363.846 47 366.858 48.2764 369.224 50.7907L372.137 48.0493ZM360.021 43C355.179 43 351.084 44.6703 347.904 48.0493L350.817 50.7907C353.183 48.2764 356.195 47 360.021 47V43ZM347.904 48.0493C344.691 51.4637 343.201 56.0811 343.201 61.64H347.201C347.201 56.7989 348.484 53.2696 350.817 50.7907L347.904 48.0493ZM343.201 61.64C343.201 67.2786 344.686 71.9715 347.884 75.4695L350.837 72.7705C348.488 70.2019 347.201 66.5748 347.201 61.64H343.201ZM347.904 75.4907C351.084 78.8697 355.179 80.54 360.021 80.54V76.54C356.195 76.54 353.183 75.2636 350.817 72.7493L347.904 75.4907ZM432.861 34.99H430.861V40.7838L434.435 36.2238L432.861 34.99ZM442.611 27.84L443.34 29.7025L443.35 29.6984L443.361 29.6942L442.611 27.84ZM456.521 25.37H458.521V23.37H456.521V25.37ZM456.521 47.6L456.292 49.5868L458.521 49.844V47.6H456.521ZM438.451 51.5L437.079 50.0448L437.069 50.0547L437.058 50.0648L438.451 51.5ZM434.031 97V99H436.031V97H434.031ZM409.331 97H407.331V99H409.331V97ZM409.331 26.54V24.54H407.331V26.54H409.331ZM432.861 26.54H434.861V24.54H432.861V26.54ZM434.435 36.2238C436.717 33.313 439.669 31.1391 443.34 29.7025L441.882 25.9775C437.58 27.6609 434.032 30.2537 431.287 33.7562L434.435 36.2238ZM443.361 29.6942C447.156 28.1598 451.532 27.37 456.521 27.37V23.37C451.111 23.37 446.213 24.2269 441.862 25.9858L443.361 29.6942ZM454.521 25.37V47.6H458.521V25.37H454.521ZM456.75 45.6132C454.457 45.3485 452.51 45.21 450.931 45.21V49.21C452.299 49.21 454.079 49.3315 456.292 49.5868L456.75 45.6132ZM450.931 45.21C445.277 45.21 440.576 46.7481 437.079 50.0448L439.823 52.9552C442.393 50.5319 446.012 49.21 450.931 49.21V45.21ZM437.058 50.0648C433.581 53.4399 432.031 58.4336 432.031 64.63H436.031C436.031 59.0397 437.428 55.2801 439.844 52.9352L437.058 50.0648ZM432.031 64.63V97H436.031V64.63H432.031ZM434.031 95H409.331V99H434.031V95ZM411.331 97V26.54H407.331V97H411.331ZM409.331 28.54H432.861V24.54H409.331V28.54ZM430.861 26.54V34.99H434.861V26.54H430.861ZM521.066 33.43L519.751 34.9365L519.757 34.9418L519.763 34.947L521.066 33.43ZM530.296 97V99H532.296V97H530.296ZM507.286 97H505.286V99H507.286V97ZM507.286 87.9H509.286L505.511 86.9787L507.286 87.9ZM472.316 95.31L471.453 97.1143L472.316 95.31ZM463.216 87.64L461.505 88.6756L461.521 88.7022L461.538 88.7284L463.216 87.64ZM467.896 60.99L469.056 62.6193L469.065 62.6129L469.074 62.6063L467.896 60.99ZM505.596 55.4V57.4H507.716L507.593 55.2839L505.596 55.4ZM480.376 45.91L480.951 47.8257L480.973 47.8191L480.994 47.8121L480.376 45.91ZM471.536 50.33L469.745 51.2189L470.838 53.4223L472.772 51.9026L471.536 50.33ZM463.216 33.56L462.107 31.8959L460.642 32.8722L461.425 34.4489L463.216 33.56ZM477.386 27.58L477.871 29.5203L477.882 29.5177L477.892 29.5149L477.386 27.58ZM500.916 80.49L501.994 82.1745L500.916 80.49ZM505.596 74.38L507.481 75.0488L507.596 74.7243V74.38H505.596ZM505.596 68.27H507.596V66.27H505.596V68.27ZM486.616 80.62L485.377 82.1898L486.616 80.62ZM494.286 27.37C505.709 27.37 514.092 29.9949 519.751 34.9365L522.382 31.9235C515.734 26.1184 506.264 23.37 494.286 23.37V27.37ZM519.763 34.947C525.331 39.7311 528.296 47.2275 528.296 57.87H532.296C532.296 46.4992 529.108 37.7022 522.37 31.913L519.763 34.947ZM528.296 57.87V97H532.296V57.87H528.296ZM530.296 95H507.286V99H530.296V95ZM509.286 97V87.9H505.286V97H509.286ZM505.511 86.9787C502.418 92.9383 496.345 96.17 486.486 96.17V100.17C497.254 100.17 505.048 96.5551 509.061 88.8213L505.511 86.9787ZM486.486 96.17C481.256 96.17 476.841 95.2568 473.179 93.5057L471.453 97.1143C475.765 99.1765 480.796 100.17 486.486 100.17V96.17ZM473.179 93.5057C469.472 91.7328 466.744 89.4034 464.894 86.5516L461.538 88.7284C463.848 92.2899 467.187 95.0739 471.453 97.1143L473.179 93.5057ZM464.927 86.6044C463.138 83.6485 462.226 80.2854 462.226 76.46H458.226C458.226 80.9546 459.308 85.0448 461.505 88.6756L464.927 86.6044ZM462.226 76.46C462.226 70.3856 464.508 65.857 469.056 62.6193L466.736 59.3607C461.058 63.403 458.226 69.1877 458.226 76.46H462.226ZM469.074 62.6063C473.682 59.2483 481.058 57.4 491.556 57.4V53.4C480.735 53.4 472.337 55.2783 466.718 59.3737L469.074 62.6063ZM491.556 57.4H505.596V53.4H491.556V57.4ZM507.593 55.2839C507.349 51.098 505.79 47.7008 502.731 45.4133C499.754 43.1864 495.628 42.22 490.646 42.22V46.22C495.198 46.22 498.33 47.1169 500.336 48.6167C502.26 50.0559 503.41 52.2486 503.6 55.5161L507.593 55.2839ZM490.646 42.22C487.04 42.22 483.409 42.8215 479.758 44.0079L480.994 47.8121C484.277 46.7452 487.492 46.22 490.646 46.22V42.22ZM479.801 43.9943C476.136 45.0941 472.955 46.6717 470.301 48.7574L472.772 51.9026C474.971 50.1749 477.683 48.8059 480.951 47.8257L479.801 43.9943ZM473.328 49.4411L465.008 32.6711L461.425 34.4489L469.745 51.2189L473.328 49.4411ZM464.326 35.2241C467.998 32.7757 472.5 30.8632 477.871 29.5203L476.901 25.6397C471.179 27.0702 466.234 29.1443 462.107 31.8959L464.326 35.2241ZM477.892 29.5149C483.366 28.0833 488.829 27.37 494.286 27.37V23.37C488.476 23.37 482.673 24.13 476.88 25.6451L477.892 29.5149ZM493.376 84.57C496.574 84.57 499.47 83.7898 501.994 82.1745L499.838 78.8055C498.029 79.9636 495.898 80.57 493.376 80.57V84.57ZM501.994 82.1745C504.576 80.5223 506.396 78.1063 507.481 75.0488L503.711 73.7112C502.89 76.027 501.59 77.6844 499.838 78.8055L501.994 82.1745ZM507.596 74.38V68.27H503.596V74.38H507.596ZM505.596 66.27H494.936V70.27H505.596V66.27ZM494.936 66.27C491.182 66.27 488.017 66.8804 485.739 68.3903C483.316 69.996 482.146 72.4489 482.146 75.42H486.146C486.146 73.6245 486.775 72.5023 487.948 71.7247C489.267 70.8512 491.497 70.27 494.936 70.27V66.27ZM482.146 75.42C482.146 78.1754 483.232 80.4963 485.377 82.1898L487.855 79.0502C486.707 78.1437 486.146 76.9979 486.146 75.42H482.146ZM485.377 82.1898C487.486 83.8545 490.228 84.57 493.376 84.57V80.57C490.804 80.57 489.04 79.9855 487.855 79.0502L485.377 82.1898ZM560.033 93.49L559.128 95.2738L560.033 93.49ZM545.603 80.49L543.895 81.5307L543.901 81.5404L543.907 81.55L545.603 80.49ZM545.603 42.92L543.907 41.86L543.902 41.8673L545.603 42.92ZM560.033 30.05L560.917 31.8439L560.927 31.8389L560.937 31.8338L560.033 30.05ZM601.633 30.57L600.607 32.2872L600.617 32.2929L600.627 32.2985L601.633 30.57ZM613.983 44.74L614.892 46.5215L616.518 45.692L615.84 43.9972L613.983 44.74ZM594.873 54.49L593.089 55.3942L593.995 57.1829L595.782 56.2715L594.873 54.49ZM569.783 49.42L568.368 48.0058L568.358 48.0163L568.347 48.027L569.783 49.42ZM569.783 74.12L568.327 75.492L568.348 75.5134L568.368 75.5342L569.783 74.12ZM594.873 69.05L595.782 67.2685L593.995 66.3571L593.089 68.1458L594.873 69.05ZM613.983 78.8L615.84 79.5428L616.518 77.848L614.892 77.0185L613.983 78.8ZM601.633 93.1L602.639 94.8285L602.648 94.8229L602.658 94.8172L601.633 93.1ZM580.963 96.17C573.436 96.17 566.775 94.6665 560.937 91.7062L559.128 95.2738C565.597 98.5535 572.89 100.17 580.963 100.17V96.17ZM560.937 91.7062C555.09 88.7415 550.562 84.6507 547.299 79.43L543.907 81.55C547.577 87.4227 552.669 91.9985 559.128 95.2738L560.937 91.7062ZM547.311 79.4493C544.137 74.2414 542.533 68.3236 542.533 61.64H538.533C538.533 68.9964 540.308 75.6453 543.895 81.5307L547.311 79.4493ZM542.533 61.64C542.533 54.956 544.137 49.0873 547.303 43.9727L543.902 41.8673C540.308 47.6727 538.533 54.284 538.533 61.64H542.533ZM547.299 43.98C550.558 38.7644 555.08 34.7212 560.917 31.8439L559.148 28.2561C552.679 31.4455 547.58 35.9823 543.907 41.86L547.299 43.98ZM560.937 31.8338C566.775 28.8735 573.436 27.37 580.963 27.37V23.37C572.89 23.37 565.597 24.9865 559.128 28.2662L560.937 31.8338ZM580.963 27.37C588.64 27.37 595.162 29.0364 600.607 32.2872L602.658 28.8528C596.49 25.1702 589.232 23.37 580.963 23.37V27.37ZM600.627 32.2985C606.059 35.4609 609.87 39.8429 612.126 45.4828L615.84 43.9972C613.242 37.5038 608.819 32.4391 602.639 28.8415L600.627 32.2985ZM613.074 42.9585L593.964 52.7085L595.782 56.2715L614.892 46.5215L613.074 42.9585ZM596.657 53.5858C594.938 50.1954 592.763 47.5303 590.078 45.7155C587.377 43.8903 584.271 43 580.833 43V47C583.547 47 585.858 47.6914 587.838 49.0295C589.833 50.378 591.6 52.4579 593.089 55.3942L596.657 53.5858ZM580.833 43C575.918 43 571.715 44.6595 568.368 48.0058L571.197 50.8342C573.744 48.2871 576.907 47 580.833 47V43ZM568.347 48.027C565.035 51.4394 563.493 56.0649 563.493 61.64H567.493C567.493 56.8151 568.81 53.2939 571.218 50.813L568.347 48.027ZM563.493 61.64C563.493 67.2943 565.031 71.9955 568.327 75.492L571.238 72.748C568.815 70.1779 567.493 66.559 567.493 61.64H563.493ZM568.368 75.5342C571.715 78.8805 575.918 80.54 580.833 80.54V76.54C576.907 76.54 573.744 75.2529 571.197 72.7058L568.368 75.5342ZM580.833 80.54C584.271 80.54 587.377 79.6497 590.078 77.8245C592.763 76.0097 594.938 73.3446 596.657 69.9542L593.089 68.1458C591.6 71.0821 589.833 73.162 587.838 74.5105C585.858 75.8486 583.547 76.54 580.833 76.54V80.54ZM593.964 70.8315L613.074 80.5815L614.892 77.0185L595.782 67.2685L593.964 70.8315ZM612.126 78.0572C609.868 83.7016 606.052 88.1325 600.607 91.3828L602.658 94.8172C608.827 91.1342 613.244 86.0318 615.84 79.5428L612.126 78.0572ZM600.627 91.3715C595.178 94.543 588.649 96.17 580.963 96.17V100.17C589.223 100.17 596.474 98.417 602.639 94.8285L600.627 91.3715ZM635.521 93.49L636.436 91.7114L635.521 93.49ZM621.221 80.49L619.513 81.5307L619.519 81.5404L619.525 81.55L621.221 80.49ZM621.221 42.92L619.525 41.86L619.519 41.8696L619.513 41.8793L621.221 42.92ZM635.391 30.05L636.296 31.8337L636.306 31.8286L635.391 30.05ZM676.471 30.05L675.556 31.8286L675.566 31.8338L675.577 31.8388L676.471 30.05ZM690.641 42.92L688.933 43.9608L688.94 43.9727L690.641 42.92ZM690.641 80.49L688.933 79.4493L690.641 80.49ZM676.471 93.49L675.556 91.7114L676.471 93.49ZM666.591 74.12L668.047 75.4907L668.057 75.4802L668.067 75.4695L666.591 74.12ZM666.591 49.42L668.047 48.0493L668.047 48.0493L666.591 49.42ZM645.271 49.42L643.815 48.0493V48.0493L645.271 49.42ZM645.271 74.12L643.795 75.4695L643.805 75.4802L643.815 75.4907L645.271 74.12ZM655.931 96.17C648.675 96.17 642.191 94.6711 636.436 91.7114L634.606 95.2686C640.985 98.5489 648.107 100.17 655.931 100.17V96.17ZM636.436 91.7114C630.675 88.7488 626.184 84.6577 622.917 79.43L619.525 81.55C623.191 87.4156 628.234 91.9912 634.606 95.2686L636.436 91.7114ZM622.929 79.4493C619.755 74.2414 618.151 68.3236 618.151 61.64H614.151C614.151 68.9964 615.927 75.6453 619.513 81.5307L622.929 79.4493ZM618.151 61.64C618.151 55.048 619.753 49.1726 622.929 43.9607L619.513 41.8793C615.929 47.7607 614.151 54.3653 614.151 61.64H618.151ZM622.917 43.98C626.186 38.7501 630.632 34.7066 636.296 31.8336L634.486 28.2663C628.19 31.46 623.19 35.9965 619.525 41.86L622.917 43.98ZM636.306 31.8286C642.057 28.8705 648.584 27.37 655.931 27.37V23.37C648.024 23.37 640.858 24.9895 634.476 28.2714L636.306 31.8286ZM655.931 27.37C663.278 27.37 669.805 28.8705 675.556 31.8286L677.386 28.2714C671.004 24.9895 663.838 23.37 655.931 23.37V27.37ZM675.577 31.8388C681.323 34.712 685.758 38.7495 688.933 43.9607L692.349 41.8793C688.764 35.9972 683.753 31.4547 677.365 28.2611L675.577 31.8388ZM688.94 43.9727C692.107 49.0873 693.711 54.956 693.711 61.64H697.711C697.711 54.284 695.935 47.6727 692.342 41.8673L688.94 43.9727ZM693.711 61.64C693.711 68.3236 692.107 74.2414 688.933 79.4493L692.349 81.5307C695.935 75.6453 697.711 68.9964 697.711 61.64H693.711ZM688.933 79.4493C685.754 84.6656 681.313 88.7509 675.556 91.7114L677.386 95.2686C683.762 91.9891 688.768 87.4078 692.349 81.5307L688.933 79.4493ZM675.556 91.7114C669.805 94.6695 663.278 96.17 655.931 96.17V100.17C663.838 100.17 671.004 98.5505 677.386 95.2686L675.556 91.7114ZM655.931 80.54C660.772 80.54 664.867 78.8697 668.047 75.4907L665.135 72.7493C662.768 75.2636 659.757 76.54 655.931 76.54V80.54ZM668.067 75.4695C671.265 71.9715 672.751 67.2786 672.751 61.64H668.751C668.751 66.5748 667.463 70.2019 665.115 72.7705L668.067 75.4695ZM672.751 61.64C672.751 56.0811 671.261 51.4637 668.047 48.0493L665.135 50.7907C667.468 53.2696 668.751 56.7989 668.751 61.64H672.751ZM668.047 48.0493C664.867 44.6703 660.772 43 655.931 43V47C659.757 47 662.768 48.2764 665.135 50.7907L668.047 48.0493ZM655.931 43C651.09 43 646.995 44.6703 643.815 48.0493L646.727 50.7907C649.094 48.2764 652.105 47 655.931 47V43ZM643.815 48.0493C640.601 51.4637 639.111 56.0811 639.111 61.64H643.111C643.111 56.7989 644.394 53.2696 646.727 50.7907L643.815 48.0493ZM639.111 61.64C639.111 67.2786 640.597 71.9715 643.795 75.4695L646.747 72.7705C644.399 70.2019 643.111 66.5748 643.111 61.64H639.111ZM643.815 75.4907C646.995 78.8697 651.09 80.54 655.931 80.54V76.54C652.105 76.54 649.094 75.2636 646.727 72.7493L643.815 75.4907Z" fill="black" />
</svg>
    