<svg width="793" height="132" viewBox="0 0 793 132" fill="none" xmlns="http://www.w3.org/2000/svg">
    <path d="M50.47 106.82C40.9367 106.82 32.3567 104.827 24.73 100.84C17.19 96.7667 11.2533 91.1333 6.92 83.94C2.58667 76.7467 0.42 68.6 0.42 59.5C0.42 50.4 2.58667 42.2533 6.92 35.06C11.2533 27.8667 17.19 22.2767 24.73 18.29C32.3567 14.2167 40.9367 12.18 50.47 12.18C58.79 12.18 66.2867 13.6533 72.96 16.6C79.6333 19.5467 85.18 23.7933 89.6 29.34L73.22 44.16C67.3267 37.0533 60.1767 33.5 51.77 33.5C46.83 33.5 42.41 34.5833 38.51 36.75C34.6967 38.9167 31.7067 41.9933 29.54 45.98C27.46 49.88 26.42 54.3867 26.42 59.5C26.42 64.6133 27.46 69.1633 29.54 73.15C31.7067 77.05 34.6967 80.0833 38.51 82.25C42.41 84.4167 46.83 85.5 51.77 85.5C60.1767 85.5 67.3267 81.9467 73.22 74.84L89.6 89.66C85.18 95.2067 79.6333 99.4533 72.96 102.4C66.2867 105.347 58.79 106.82 50.47 106.82ZM131.158 106.17C123.618 106.17 116.815 104.61 110.748 101.49C104.682 98.37 99.915 94.0367 96.4484 88.49C93.0684 82.9433 91.3784 76.66 91.3784 69.64C91.3784 62.7067 93.0684 56.4667 96.4484 50.92C99.915 45.3733 104.638 41.0833 110.618 38.05C116.685 34.93 123.532 33.37 131.158 33.37C138.785 33.37 145.632 34.93 151.698 38.05C157.765 41.0833 162.488 45.3733 165.868 50.92C169.248 56.38 170.938 62.62 170.938 69.64C170.938 76.66 169.248 82.9433 165.868 88.49C162.488 94.0367 157.765 98.37 151.698 101.49C145.632 104.61 138.785 106.17 131.158 106.17ZM131.158 86.54C135.492 86.54 139.045 85.0667 141.818 82.12C144.592 79.0867 145.978 74.9267 145.978 69.64C145.978 64.44 144.592 60.3667 141.818 57.42C139.045 54.4733 135.492 53 131.158 53C126.825 53 123.272 54.4733 120.498 57.42C117.725 60.3667 116.338 64.44 116.338 69.64C116.338 74.9267 117.725 79.0867 120.498 82.12C123.272 85.0667 126.825 86.54 131.158 86.54ZM272.21 33.37C280.877 33.37 287.767 35.97 292.88 41.17C298.08 46.37 300.68 54.2133 300.68 64.7V105H275.98V68.73C275.98 63.79 275.027 60.15 273.12 57.81C271.3 55.47 268.7 54.3 265.32 54.3C261.594 54.3 258.604 55.6 256.35 58.2C254.097 60.8 252.97 64.7433 252.97 70.03V105H228.27V68.73C228.27 59.11 224.717 54.3 217.61 54.3C213.797 54.3 210.764 55.6 208.51 58.2C206.257 60.8 205.13 64.7433 205.13 70.03V105H180.43V34.54H203.96V41.95C206.56 39.09 209.637 36.9667 213.19 35.58C216.83 34.1067 220.774 33.37 225.02 33.37C229.96 33.37 234.38 34.28 238.28 36.1C242.18 37.92 245.344 40.6933 247.77 44.42C250.544 40.8667 254.054 38.1367 258.3 36.23C262.547 34.3233 267.184 33.37 272.21 33.37ZM406.1 33.37C414.767 33.37 421.657 35.97 426.77 41.17C431.97 46.37 434.57 54.2133 434.57 64.7V105H409.87V68.73C409.87 63.79 408.917 60.15 407.01 57.81C405.19 55.47 402.59 54.3 399.21 54.3C395.484 54.3 392.494 55.6 390.24 58.2C387.987 60.8 386.86 64.7433 386.86 70.03V105H362.16V68.73C362.16 59.11 358.607 54.3 351.5 54.3C347.687 54.3 344.654 55.6 342.4 58.2C340.147 60.8 339.02 64.7433 339.02 70.03V105H314.32V34.54H337.85V41.95C340.45 39.09 343.527 36.9667 347.08 35.58C350.72 34.1067 354.664 33.37 358.91 33.37C363.85 33.37 368.27 34.28 372.17 36.1C376.07 37.92 379.234 40.6933 381.66 44.42C384.434 40.8667 387.944 38.1367 392.19 36.23C396.437 34.3233 401.074 33.37 406.1 33.37ZM522.31 34.54V105H498.78V97.46C496.18 100.32 493.06 102.487 489.42 103.96C485.78 105.433 481.923 106.17 477.85 106.17C468.75 106.17 461.47 103.483 456.01 98.11C450.637 92.7367 447.95 84.6767 447.95 73.93V34.54H472.65V69.9C472.65 75.1867 473.647 79.0433 475.64 81.47C477.633 83.8967 480.537 85.11 484.35 85.11C488.25 85.11 491.413 83.7667 493.84 81.08C496.353 78.3067 497.61 74.1033 497.61 68.47V34.54H522.31ZM582.16 33.37C590.913 33.37 597.933 35.97 603.22 41.17C608.593 46.37 611.28 54.2133 611.28 64.7V105H586.58V68.73C586.58 59.11 582.723 54.3 575.01 54.3C570.763 54.3 567.34 55.6867 564.74 58.46C562.227 61.2333 560.97 65.3933 560.97 70.94V105H536.27V34.54H559.8V42.21C562.573 39.35 565.867 37.1833 569.68 35.71C573.493 34.15 577.653 33.37 582.16 33.37ZM624.837 34.54H649.537V105H624.837V34.54ZM637.187 26.74C632.681 26.74 629.041 25.4833 626.267 22.97C623.494 20.4567 622.107 17.3367 622.107 13.61C622.107 9.88333 623.494 6.76333 626.267 4.25C629.041 1.73666 632.681 0.479997 637.187 0.479997C641.694 0.479997 645.334 1.69333 648.107 4.12C650.881 6.46 652.267 9.49333 652.267 13.22C652.267 17.12 650.881 20.37 648.107 22.97C645.334 25.4833 641.694 26.74 637.187 26.74ZM712.259 102.14C710.179 103.44 707.623 104.437 704.589 105.13C701.643 105.823 698.479 106.17 695.099 106.17C685.913 106.17 678.849 103.917 673.909 99.41C668.969 94.9033 666.499 88.1867 666.499 79.26V55.6H656.229V37.14H666.499V18.81H691.199V37.14H707.319V55.6H691.199V79C691.199 81.5133 691.849 83.5067 693.149 84.98C694.536 86.3667 696.356 87.06 698.609 87.06C701.469 87.06 703.983 86.3233 706.149 84.85L712.259 102.14ZM792.794 34.54L762.374 107.86C758.821 116.527 754.488 122.593 749.374 126.06C744.261 129.613 738.021 131.39 730.654 131.39C726.928 131.39 723.158 130.783 719.344 129.57C715.618 128.443 712.584 126.927 710.244 125.02L718.824 107.73C720.211 109.03 721.858 110.027 723.764 110.72C725.758 111.5 727.751 111.89 729.744 111.89C732.084 111.89 733.991 111.413 735.464 110.46C737.024 109.507 738.324 107.99 739.364 105.91L709.204 34.54H734.554L751.844 77.57L769.264 34.54H792.794Z" fill="black" />
</svg>
    