<svg width="60" height="60" viewBox="0 0 60 60" fill="none" xmlns="http://www.w3.org/2000/svg">
<path fill-rule="evenodd" clip-rule="evenodd" d="M54 4.0835C54 4.6285 54.221 5.1235 54.576 5.4845C54.58 5.4885 54.586 5.4895 54.59 5.4935C54.594 5.4975 54.595 5.5035 54.599 5.5075C54.96 5.8625 55.455 6.0835 56 6.0835C57.103 6.0835 58 5.1865 58 4.0835C58 2.9805 57.103 2.0835 56 2.0835C54.897 2.0835 54 2.9805 54 4.0835ZM42 20.0835C42 18.9805 41.103 18.0835 40 18.0835C38.897 18.0835 38 18.9805 38 20.0835C38 21.1865 38.897 22.0835 40 22.0835C41.103 22.0835 42 21.1865 42 20.0835ZM32 10.0835C32 8.9805 31.103 8.0835 30 8.0835C28.897 8.0835 28 8.9805 28 10.0835C28 11.1865 28.897 12.0835 30 12.0835C31.103 12.0835 32 11.1865 32 10.0835ZM52.567 6.1025C52.215 5.5075 52 4.8235 52 4.0835C52 1.8775 53.794 0.0834961 56 0.0834961C58.206 0.0834961 60 1.8775 60 4.0835C60 6.2895 58.206 8.0835 56 8.0835C55.26 8.0835 54.576 7.8685 53.981 7.5165L43.433 18.0645C43.785 18.6595 44 19.3435 44 20.0835C44 22.2895 42.206 24.0835 40 24.0835C37.794 24.0835 36 22.2895 36 20.0835C36 19.3415 36.216 18.6555 36.569 18.0595L32.024 13.5145C31.428 13.8675 30.742 14.0835 30 14.0835C29.003 14.0835 28.101 13.7035 27.4 13.0975L13.707 26.7905C13.512 26.9855 13.256 27.0835 13 27.0835C12.744 27.0835 12.488 26.9855 12.293 26.7905C11.902 26.3995 11.902 25.7675 12.293 25.3765L26.248 11.4215C26.097 11.0015 26 10.5555 26 10.0835C26 7.8775 27.794 6.0835 30 6.0835C32.206 6.0835 34 7.8775 34 10.0835C34 10.8205 33.786 11.5035 33.436 12.0975L37.986 16.6475C38.58 16.2975 39.263 16.0835 40 16.0835C40.74 16.0835 41.424 16.2985 42.019 16.6505L52.567 6.1025ZM43 30.0835C43.552 30.0835 44 29.6355 44 29.0835V27.0835C44 26.5315 43.552 26.0835 43 26.0835H37C36.448 26.0835 36 26.5315 36 27.0835V34.0835C36 34.6355 36.448 35.0835 37 35.0835C37.552 35.0835 38 34.6355 38 34.0835V28.0835H42V29.0835C42 29.6355 42.448 30.0835 43 30.0835ZM33 38.0835C33.552 38.0835 34 37.6355 34 37.0835V19.0835C34 18.5315 33.552 18.0835 33 18.0835H27C26.448 18.0835 26 18.5315 26 19.0835V37.0835C26 37.6355 26.448 38.0835 27 38.0835C27.552 38.0835 28 37.6355 28 37.0835V20.0835H32V37.0835C32 37.6355 32.448 38.0835 33 38.0835ZM23 35.0835C23.552 35.0835 24 34.6355 24 34.0835V27.0835C24 26.5315 23.552 26.0835 23 26.0835H17C16.448 26.0835 16 26.5315 16 27.0835V29.0835C16 29.6355 16.448 30.0835 17 30.0835C17.552 30.0835 18 29.6355 18 29.0835V28.0835H22V34.0835C22 34.6355 22.448 35.0835 23 35.0835ZM56.597 18.2845C56.594 18.2815 56.593 18.2785 56.59 18.2765L50.86 14.0885C50.415 13.7615 49.789 13.8605 49.463 14.3065C49.137 14.7515 49.234 15.3775 49.681 15.7035L55.41 19.8905C55.423 19.8995 55.437 19.9025 55.45 19.9115C55.461 19.9175 55.466 19.9295 55.477 19.9355C57.08 20.9205 58 22.7975 58 25.0835V55.0835C58 56.7655 56.682 58.0835 55 58.0835H5C3.318 58.0835 2 56.7655 2 55.0835V25.0835C2 23.2695 2.777 20.9765 4.512 19.9425C4.523 19.9365 4.529 19.9235 4.541 19.9165C4.556 19.9065 4.574 19.9025 4.589 19.8925L27.628 3.1115C27.984 2.8255 29.113 2.0835 30.042 2.0835C30.944 2.0835 32.047 2.8455 32.454 3.1835L43.6 11.2885C44.046 11.6145 44.672 11.5145 44.996 11.0675C45.321 10.6215 45.222 9.9955 44.775 9.6705L33.689 1.6125C33.505 1.4565 31.837 0.0834961 30.042 0.0834961C28.24 0.0834961 26.556 1.4055 26.411 1.5245L3.411 18.2745C3.407 18.2775 3.405 18.2835 3.401 18.2865C1.333 19.5705 0 22.2205 0 25.0835V55.0835C0 57.8875 2.196 60.0835 5 60.0835H55C57.804 60.0835 60 57.8875 60 55.0835V25.0835C60 22.1215 58.759 19.6525 56.597 18.2845ZM40.214 41.4655C39.873 41.8995 39.948 42.5285 40.382 42.8695L54.382 53.8695C54.565 54.0135 54.783 54.0835 55 54.0835C55.295 54.0835 55.589 53.9525 55.786 53.7015C56.127 53.2675 56.052 52.6385 55.618 52.2975L41.618 41.2975C41.185 40.9565 40.555 41.0315 40.214 41.4655ZM18.339 41.2975L4.381 52.2975C3.947 52.6405 3.873 53.2685 4.214 53.7025C4.412 53.9525 4.705 54.0835 5 54.0835C5.217 54.0835 5.436 54.0135 5.619 53.8695L19.577 42.8695C20.011 42.5265 20.085 41.8985 19.744 41.4645C19.402 41.0315 18.774 40.9585 18.339 41.2975ZM55.795 24.4775C56.13 24.9165 56.045 25.5445 55.606 25.8785L33.606 42.6285C33.444 42.7615 31.76 44.0835 29.958 44.0835C28.163 44.0835 26.495 42.7105 26.311 42.5545L4.395 25.8795C3.955 25.5445 3.87 24.9175 4.204 24.4785C4.538 24.0385 5.167 23.9535 5.605 24.2875L27.563 40.9965C27.953 41.3215 29.056 42.0835 29.958 42.0835C30.887 42.0835 32.016 41.3415 32.372 41.0555L54.394 24.2885C54.835 23.9525 55.46 24.0385 55.795 24.4775Z" fill="white"/>
</svg>
