<svg width="60" height="60" viewBox="0 0 60 60" fill="none" xmlns="http://www.w3.org/2000/svg">
<g clip-path="url(#clip0_118:2853)">
<path d="M22.4995 48.8335C22.4995 44.8835 19.9995 43.8335 18.7495 43.8335H11.2495C10.9154 43.8556 10.5805 43.8061 10.2672 43.6883C9.95388 43.5704 9.66933 43.387 9.43263 43.1503C9.19592 42.9136 9.01252 42.6291 8.8947 42.3157C8.77688 42.0024 8.72736 41.6675 8.74946 41.3335V36.671C8.74923 36.4935 8.71121 36.3181 8.63793 36.1565C8.56465 35.9948 8.45779 35.8506 8.32446 35.7335C7.07161 34.5799 5.45095 33.9068 3.74946 33.8335C3.60293 33.8545 3.45368 33.8457 3.31064 33.8076C3.16761 33.7695 3.03372 33.703 2.91701 33.612C2.8003 33.5209 2.70316 33.4073 2.63141 33.2778C2.55966 33.1483 2.51478 33.0057 2.49946 32.8585L8.57446 21.8585C8.68265 21.6765 8.74287 21.4701 8.74946 21.2585V18.8335C8.74946 14.5237 10.4615 10.3905 13.509 7.34301C16.5564 4.29554 20.6897 2.5835 24.9995 2.5835H27.4995V0.0834961H24.9995C20.0266 0.0834961 15.2575 2.05894 11.7412 5.57524C8.2249 9.09155 6.24946 13.8607 6.24946 18.8335V20.9335L0.149456 31.9835C0.049987 32.1678 -0.00159172 32.3741 -0.000544018 32.5835C-0.0143356 33.0797 0.0732329 33.5735 0.256806 34.0347C0.44038 34.4959 0.7161 34.9148 1.06711 35.2658C1.41811 35.6169 1.83703 35.8926 2.29824 36.0761C2.75944 36.2597 3.25325 36.3473 3.74946 36.3335C4.65877 36.3843 5.53094 36.7114 6.24946 37.271V41.3335C6.23046 41.9953 6.34681 42.6539 6.59136 43.2692C6.83591 43.8844 7.20351 44.4432 7.67165 44.9113C8.13978 45.3794 8.69858 45.747 9.3138 45.9916C9.92901 46.2361 10.5877 46.3525 11.2495 46.3335H18.7495C18.962 46.3335 19.9995 46.5335 19.9995 48.8335V58.8335C19.9995 59.165 20.1311 59.483 20.3656 59.7174C20.6 59.9518 20.9179 60.0835 21.2495 60.0835H27.4995V57.5835H22.4995V48.8335Z" fill="white"/>
<path d="M32.4995 19.371V35.0835C32.4857 35.5797 32.5732 36.0735 32.7568 36.5347C32.9404 36.996 33.2161 37.4149 33.5671 37.7659C33.9181 38.1169 34.337 38.3926 34.7982 38.5762C35.2594 38.7598 35.7532 38.8473 36.2495 38.8335H38.7495C39.2457 38.8473 39.7395 38.7598 40.2007 38.5762C40.6619 38.3926 41.0808 38.1169 41.4318 37.7659C41.7828 37.4149 42.0585 36.996 42.2421 36.5347C42.4257 36.0735 42.5132 35.5797 42.4995 35.0835V26.3335H39.9995V35.0835C40.0171 35.252 39.997 35.4223 39.9404 35.582C39.8838 35.7417 39.7923 35.8868 39.6725 36.0066C39.5527 36.1264 39.4077 36.2179 39.248 36.2745C39.0883 36.331 38.9179 36.3512 38.7495 36.3335H36.2495C36.081 36.3512 35.9106 36.331 35.7509 36.2745C35.5913 36.2179 35.4462 36.1264 35.3264 36.0066C35.2066 35.8868 35.1151 35.7417 35.0585 35.582C35.002 35.4223 34.9818 35.252 34.9995 35.0835V18.8335C34.9983 18.6379 34.9512 18.4452 34.862 18.271L29.862 8.27103C29.7583 8.06302 29.5987 7.88803 29.4011 7.76572C29.2034 7.64341 28.9756 7.57861 28.7432 7.57861C28.5108 7.57861 28.283 7.64341 28.0854 7.76572C27.8877 7.88803 27.7281 8.06302 27.6245 8.27103L22.6245 18.271C22.5396 18.4462 22.4967 18.6389 22.4995 18.8335V35.0835C22.5148 35.2515 22.4931 35.4208 22.4357 35.5795C22.3783 35.7381 22.2867 35.8822 22.1674 36.0015C22.0481 36.1208 21.9041 36.2124 21.7454 36.2697C21.5868 36.3271 21.4175 36.3489 21.2495 36.3335H18.7495C18.5815 36.3489 18.4121 36.3271 18.2535 36.2697C18.0949 36.2124 17.9508 36.1208 17.8315 36.0015C17.7122 35.8822 17.6206 35.7381 17.5632 35.5795C17.5059 35.4208 17.4841 35.2515 17.4995 35.0835V26.3335H14.9995V35.0835C14.9857 35.5797 15.0732 36.0735 15.2568 36.5347C15.4404 36.996 15.7161 37.4149 16.0671 37.7659C16.4181 38.1169 16.837 38.3926 17.2982 38.5762C17.7594 38.7598 18.2532 38.8473 18.7495 38.8335H21.2495C21.7457 38.8473 22.2395 38.7598 22.7007 38.5762C23.1619 38.3926 23.5808 38.1169 23.9318 37.7659C24.2828 37.4149 24.5585 36.996 24.7421 36.5347C24.9257 36.0735 25.0132 35.5797 24.9995 35.0835V19.371L25.362 19.721C25.9382 20.3741 26.675 20.8653 27.4995 21.146V46.3335H29.9995V21.146C30.8253 20.8618 31.5622 20.3662 32.137 19.7085L32.4995 19.371ZM30.362 17.9585C29.7495 18.571 29.4495 18.846 28.7495 18.846C28.0495 18.846 27.7495 18.571 27.137 17.9585C26.8098 17.6157 26.4498 17.3059 26.062 17.0335L27.6495 13.8335H29.8495L31.4495 17.021C31.0573 17.2927 30.693 17.6025 30.362 17.946V17.9585Z" fill="white"/>
<path d="M29.999 48.8335H27.499V51.3335H29.999V48.8335Z" fill="white"/>
<path d="M17.499 21.3335H14.999V23.8335H17.499V21.3335Z" fill="white"/>
<path d="M42.499 21.3335H39.999V23.8335H42.499V21.3335Z" fill="white"/>
<path d="M57.499 23.8335H52.899C52.3729 21.9066 51.6042 20.0543 50.6115 18.321L53.8615 15.0835C54.094 14.8513 54.2784 14.5756 54.4042 14.2721C54.53 13.9686 54.5947 13.6433 54.5947 13.3147C54.5947 12.9862 54.53 12.6609 54.4042 12.3574C54.2784 12.0539 54.094 11.7782 53.8615 11.546L48.5615 6.221C48.3293 5.98855 48.0536 5.80416 47.7501 5.67835C47.4466 5.55254 47.1213 5.48778 46.7928 5.48778C46.4642 5.48778 46.1389 5.55254 45.8354 5.67835C45.5319 5.80416 45.2562 5.98855 45.024 6.221L41.7615 9.471C40.0282 8.47829 38.1759 7.70964 36.249 7.1835V2.5835C36.249 1.92045 35.9856 1.28457 35.5168 0.815729C35.0479 0.346888 34.4121 0.0834961 33.749 0.0834961L31.249 0.0834961V2.5835H33.749V8.1585C33.742 8.44745 33.8353 8.72992 34.013 8.95783C34.1908 9.18573 34.442 9.34499 34.724 9.4085C37.0358 9.93396 39.2419 10.8469 41.249 12.1085C41.489 12.2594 41.773 12.3242 42.0547 12.2924C42.3363 12.2606 42.5988 12.1341 42.799 11.9335L46.749 7.9835L52.049 13.2835L48.099 17.2335C47.8937 17.4431 47.7687 17.7183 47.7458 18.0108C47.723 18.3033 47.8038 18.5945 47.974 18.8335C49.2496 20.8543 50.1712 23.0778 50.699 25.4085C50.7625 25.6905 50.9218 25.9417 51.1497 26.1195C51.3776 26.2973 51.6601 26.3906 51.949 26.3835H57.499V33.8835H51.924C51.6351 33.8764 51.3526 33.9697 51.1247 34.1475C50.8968 34.3253 50.7375 34.5765 50.674 34.8585C50.1432 37.1529 49.2305 39.3417 47.974 41.3335C47.8232 41.5734 47.7583 41.8575 47.7901 42.1391C47.8219 42.4208 47.9485 42.6832 48.149 42.8835L52.099 46.8335L46.799 52.1335L42.849 48.1835C42.6394 47.9782 42.3643 47.8532 42.0717 47.8303C41.7792 47.8075 41.488 47.8882 41.249 48.0585C39.2283 49.3341 37.0047 50.2557 34.674 50.7835C34.392 50.847 34.1408 51.0063 33.963 51.2342C33.7853 51.4621 33.692 51.7445 33.699 52.0335V57.5835H31.249V60.0835H33.749C34.4121 60.0835 35.0479 59.8201 35.5168 59.3513C35.9856 58.8824 36.249 58.2465 36.249 57.5835V52.9835C38.1759 52.4574 40.0282 51.6887 41.7615 50.696L44.999 53.946C45.2312 54.1784 45.5069 54.3628 45.8104 54.4886C46.1139 54.6145 46.4392 54.6792 46.7678 54.6792C47.0963 54.6792 47.4216 54.6145 47.7251 54.4886C48.0286 54.3628 48.3043 54.1784 48.5365 53.946L53.8365 48.646C54.069 48.4138 54.2534 48.1381 54.3792 47.8346C54.505 47.5311 54.5697 47.2058 54.5697 46.8772C54.5697 46.5487 54.505 46.2234 54.3792 45.9199C54.2534 45.6164 54.069 45.3407 53.8365 45.1085L50.574 41.846C51.5797 40.1146 52.361 38.2622 52.899 36.3335H57.499C58.1621 36.3335 58.798 36.0701 59.2668 35.6013C59.7356 35.1324 59.999 34.4965 59.999 33.8335V26.3335C59.999 25.6705 59.7356 25.0346 59.2668 24.5657C58.798 24.0969 58.1621 23.8335 57.499 23.8335Z" fill="white"/>
</g>
<defs>
<clipPath id="clip0_118:2853">
<rect width="60" height="59.3569" fill="white" transform="translate(0 0.0834961)"/>
</clipPath>
</defs>
</svg>
