<svg width="288" height="73" viewBox="0 0 288 73" fill="none" xmlns="http://www.w3.org/2000/svg">
<path d="M26.0834 39.032V44.312H38.9314V52.144H26.0834V62H15.6994V31.2H40.7354V39.032H26.0834ZM55.9941 62.44C53.3248 62.44 50.9195 61.912 48.7781 60.856C46.6661 59.7707 45.0088 58.2893 43.8061 56.412C42.6035 54.5053 42.0021 52.3493 42.0021 49.944C42.0021 47.5387 42.6035 45.3973 43.8061 43.52C45.0088 41.6133 46.6661 40.132 48.7781 39.076C50.9195 38.02 53.3248 37.492 55.9941 37.492C58.6928 37.492 61.0981 38.02 63.2101 39.076C65.3515 40.132 67.0088 41.6133 68.1821 43.52C69.3848 45.3973 69.9861 47.5387 69.9861 49.944C69.9861 52.3493 69.3848 54.5053 68.1821 56.412C67.0088 58.2893 65.3515 59.7707 63.2101 60.856C61.0981 61.912 58.6928 62.44 55.9941 62.44ZM55.9941 54.696C57.1381 54.696 58.0768 54.2853 58.8101 53.464C59.5435 52.6133 59.9101 51.44 59.9101 49.944C59.9101 48.448 59.5435 47.2893 58.8101 46.468C58.0768 45.6467 57.1381 45.236 55.9941 45.236C54.8501 45.236 53.9115 45.6467 53.1781 46.468C52.4448 47.2893 52.0781 48.448 52.0781 49.944C52.0781 51.44 52.4448 52.6133 53.1781 53.464C53.9115 54.2853 54.8501 54.696 55.9941 54.696ZM99.4104 37.932V62H89.9504V59.712C89.0704 60.6213 88.0438 61.3107 86.8704 61.78C85.6971 62.22 84.4504 62.44 83.1304 62.44C80.0798 62.44 77.6304 61.516 75.7824 59.668C73.9344 57.7907 73.0104 54.9747 73.0104 51.22V37.932H82.9544V49.504C82.9544 51.1467 83.2184 52.32 83.7464 53.024C84.2744 53.728 85.0518 54.08 86.0784 54.08C87.0464 54.08 87.8531 53.6987 88.4984 52.936C89.1438 52.144 89.4664 50.912 89.4664 49.24V37.932H99.4104ZM120.541 37.492C123.504 37.492 125.88 38.3867 127.669 40.176C129.488 41.9653 130.397 44.664 130.397 48.272V62H120.453V49.988C120.453 47.2307 119.47 45.852 117.505 45.852C116.39 45.852 115.481 46.248 114.777 47.04C114.102 47.8027 113.765 49.02 113.765 50.692V62H103.821V37.932H113.281V40.308C114.22 39.3693 115.305 38.6653 116.537 38.196C117.769 37.7267 119.104 37.492 120.541 37.492ZM161.765 29.352V62H152.305V60.02C150.868 61.6333 148.668 62.44 145.705 62.44C143.593 62.44 141.643 61.9413 139.853 60.944C138.093 59.9173 136.685 58.4507 135.629 56.544C134.603 54.6373 134.089 52.4373 134.089 49.944C134.089 47.4507 134.603 45.2653 135.629 43.388C136.685 41.4813 138.093 40.0293 139.853 39.032C141.643 38.0053 143.593 37.492 145.705 37.492C148.375 37.492 150.413 38.1813 151.821 39.56V29.352H161.765ZM148.081 54.696C149.225 54.696 150.164 54.2853 150.897 53.464C151.631 52.6133 151.997 51.44 151.997 49.944C151.997 48.448 151.631 47.2893 150.897 46.468C150.164 45.6467 149.225 45.236 148.081 45.236C146.937 45.236 145.999 45.6467 145.265 46.468C144.532 47.2893 144.165 48.448 144.165 49.944C144.165 51.44 144.532 52.6133 145.265 53.464C145.999 54.2853 146.937 54.696 148.081 54.696ZM176.949 37.492C181.173 37.492 184.399 38.4453 186.629 40.352C188.858 42.2293 189.973 45.1333 189.973 49.064V62H180.733V58.832C179.589 61.2373 177.315 62.44 173.913 62.44C172.006 62.44 170.378 62.1173 169.029 61.472C167.709 60.7973 166.697 59.9027 165.993 58.788C165.318 57.644 164.981 56.368 164.981 54.96C164.981 52.584 165.89 50.78 167.709 49.548C169.527 48.316 172.285 47.7 175.981 47.7H179.985C179.662 45.8227 178.151 44.884 175.453 44.884C174.367 44.884 173.267 45.06 172.153 45.412C171.038 45.7347 170.085 46.1893 169.293 46.776L166.125 40.22C167.503 39.3693 169.161 38.7093 171.097 38.24C173.062 37.7413 175.013 37.492 176.949 37.492ZM176.905 56.456C177.609 56.456 178.239 56.2653 178.797 55.884C179.354 55.5027 179.765 54.9307 180.029 54.168V52.496H177.565C175.541 52.496 174.529 53.1707 174.529 54.52C174.529 55.0773 174.734 55.5467 175.145 55.928C175.585 56.28 176.171 56.456 176.905 56.456ZM212.002 61.164C210.506 62.0147 208.468 62.44 205.886 62.44C202.513 62.44 199.917 61.6333 198.098 60.02C196.28 58.3773 195.37 55.928 195.37 52.672V46.512H192.07V39.252H195.37V32.52H205.314V39.252H210.242V46.512H205.314V52.584C205.314 53.3173 205.505 53.8893 205.886 54.3C206.268 54.7107 206.766 54.916 207.382 54.916C208.233 54.916 208.981 54.696 209.626 54.256L212.002 61.164ZM214.509 37.932H224.453V62H214.509V37.932ZM219.481 35.996C217.691 35.996 216.239 35.5267 215.125 34.588C214.039 33.62 213.497 32.4027 213.497 30.936C213.497 29.4693 214.039 28.2667 215.125 27.328C216.239 26.36 217.691 25.876 219.481 25.876C221.299 25.876 222.751 26.3307 223.837 27.24C224.922 28.1493 225.465 29.3227 225.465 30.76C225.465 32.2853 224.922 33.5467 223.837 34.544C222.751 35.512 221.299 35.996 219.481 35.996ZM241.576 62.44C238.907 62.44 236.501 61.912 234.36 60.856C232.248 59.7707 230.591 58.2893 229.388 56.412C228.185 54.5053 227.584 52.3493 227.584 49.944C227.584 47.5387 228.185 45.3973 229.388 43.52C230.591 41.6133 232.248 40.132 234.36 39.076C236.501 38.02 238.907 37.492 241.576 37.492C244.275 37.492 246.68 38.02 248.792 39.076C250.933 40.132 252.591 41.6133 253.764 43.52C254.967 45.3973 255.568 47.5387 255.568 49.944C255.568 52.3493 254.967 54.5053 253.764 56.412C252.591 58.2893 250.933 59.7707 248.792 60.856C246.68 61.912 244.275 62.44 241.576 62.44ZM241.576 54.696C242.72 54.696 243.659 54.2853 244.392 53.464C245.125 52.6133 245.492 51.44 245.492 49.944C245.492 48.448 245.125 47.2893 244.392 46.468C243.659 45.6467 242.72 45.236 241.576 45.236C240.432 45.236 239.493 45.6467 238.76 46.468C238.027 47.2893 237.66 48.448 237.66 49.944C237.66 51.44 238.027 52.6133 238.76 53.464C239.493 54.2853 240.432 54.696 241.576 54.696ZM275.4 37.492C278.363 37.492 280.739 38.3867 282.528 40.176C284.347 41.9653 285.256 44.664 285.256 48.272V62H275.312V49.988C275.312 47.2307 274.33 45.852 272.364 45.852C271.25 45.852 270.34 46.248 269.636 47.04C268.962 47.8027 268.624 49.02 268.624 50.692V62H258.68V37.932H268.14V40.308C269.079 39.3693 270.164 38.6653 271.396 38.196C272.628 37.7267 273.963 37.492 275.4 37.492Z" fill="black"/>
<path d="M22.84 25.32C20.6933 25.32 19.02 24.74 17.82 23.58C16.62 22.42 16.02 20.7933 16.02 18.7V11H20.74V18.56C20.74 19.5867 20.92 20.3333 21.28 20.8C21.6533 21.2667 22.1867 21.5 22.88 21.5C23.5733 21.5 24.1 21.2667 24.46 20.8C24.8333 20.3333 25.02 19.5867 25.02 18.56V11H29.66V18.7C29.66 20.7933 29.06 22.42 27.86 23.58C26.66 24.74 24.9867 25.32 22.84 25.32ZM37.5236 20.36L36.4636 21.54V25H31.8236V11H36.4636V16.08L41.0636 11H46.2036L40.6036 17.16L46.4836 25H41.0236L37.5236 20.36ZM59.8127 25.32C57.666 25.32 55.9927 24.74 54.7927 23.58C53.5927 22.42 52.9927 20.7933 52.9927 18.7V11H57.7127V18.56C57.7127 19.5867 57.8927 20.3333 58.2527 20.8C58.626 21.2667 59.1593 21.5 59.8527 21.5C60.546 21.5 61.0727 21.2667 61.4327 20.8C61.806 20.3333 61.9927 19.5867 61.9927 18.56V11H66.6327V18.7C66.6327 20.7933 66.0327 22.42 64.8327 23.58C63.6327 24.74 61.9593 25.32 59.8127 25.32ZM83.1363 13.86C84.4563 13.86 85.5096 14.2667 86.2963 15.08C87.0963 15.8933 87.4963 17.12 87.4963 18.76V25H82.9763V19.54C82.9763 18.2867 82.5696 17.66 81.7563 17.66C81.3296 17.66 80.9829 17.82 80.7163 18.14C80.4629 18.46 80.3363 18.9667 80.3363 19.66V25H75.8163V19.54C75.8163 18.2867 75.4096 17.66 74.5963 17.66C74.1696 17.66 73.8229 17.82 73.5563 18.14C73.3029 18.46 73.1763 18.9667 73.1763 19.66V25H68.6563V14.06H72.9563V15.08C73.7696 14.2667 74.8029 13.86 76.0563 13.86C76.7896 13.86 77.4496 14 78.0363 14.28C78.6229 14.5467 79.1029 14.96 79.4763 15.52C79.9163 14.9867 80.4496 14.58 81.0763 14.3C81.7029 14.0067 82.3896 13.86 83.1363 13.86ZM96.757 13.86C97.717 13.86 98.597 14.0933 99.397 14.56C100.21 15.0133 100.85 15.6733 101.317 16.54C101.797 17.3933 102.037 18.3867 102.037 19.52C102.037 20.6533 101.797 21.6533 101.317 22.52C100.85 23.3867 100.21 24.0533 99.397 24.52C98.597 24.9733 97.717 25.2 96.757 25.2C95.4104 25.2 94.4104 24.8333 93.757 24.1V25H89.457V10.16H93.977V14.8C94.617 14.1733 95.5437 13.86 96.757 13.86ZM95.677 21.68C96.197 21.68 96.6237 21.4933 96.957 21.12C97.2904 20.7333 97.457 20.2 97.457 19.52C97.457 18.84 97.2904 18.3133 96.957 17.94C96.6237 17.5667 96.197 17.38 95.677 17.38C95.157 17.38 94.7304 17.5667 94.397 17.94C94.0637 18.3133 93.897 18.84 93.897 19.52C93.897 20.2 94.0637 20.7333 94.397 21.12C94.7304 21.4933 95.157 21.68 95.677 21.68ZM107.761 15.24C108.561 14.32 109.741 13.86 111.301 13.86V17.86C110.941 17.8067 110.608 17.78 110.301 17.78C108.754 17.78 107.981 18.5667 107.981 20.14V25H103.461V14.06H107.761V15.24ZM117.384 13.86C119.304 13.86 120.771 14.2933 121.784 15.16C122.798 16.0133 123.304 17.3333 123.304 19.12V25H119.104V23.56C118.584 24.6533 117.551 25.2 116.004 25.2C115.138 25.2 114.398 25.0533 113.784 24.76C113.184 24.4533 112.724 24.0467 112.404 23.54C112.098 23.02 111.944 22.44 111.944 21.8C111.944 20.72 112.358 19.9 113.184 19.34C114.011 18.78 115.264 18.5 116.944 18.5H118.764C118.618 17.6467 117.931 17.22 116.704 17.22C116.211 17.22 115.711 17.3 115.204 17.46C114.698 17.6067 114.264 17.8133 113.904 18.08L112.464 15.1C113.091 14.7133 113.844 14.4133 114.724 14.2C115.618 13.9733 116.504 13.86 117.384 13.86ZM117.364 22.48C117.684 22.48 117.971 22.3933 118.224 22.22C118.478 22.0467 118.664 21.7867 118.784 21.44V20.68H117.664C116.744 20.68 116.284 20.9867 116.284 21.6C116.284 21.8533 116.378 22.0667 116.564 22.24C116.764 22.4 117.031 22.48 117.364 22.48ZM131.333 25.2C130.093 25.2 128.98 24.96 127.993 24.48C127.02 24 126.253 23.3267 125.693 22.46C125.146 21.5933 124.873 20.6133 124.873 19.52C124.873 18.4267 125.146 17.4533 125.693 16.6C126.253 15.7333 127.02 15.06 127.993 14.58C128.98 14.1 130.093 13.86 131.333 13.86C132.666 13.86 133.806 14.1467 134.753 14.72C135.7 15.2933 136.353 16.0867 136.713 17.1L133.213 18.82C132.786 17.86 132.153 17.38 131.313 17.38C130.78 17.38 130.333 17.5667 129.973 17.94C129.626 18.3133 129.453 18.84 129.453 19.52C129.453 20.2133 129.626 20.7467 129.973 21.12C130.333 21.4933 130.78 21.68 131.313 21.68C132.153 21.68 132.786 21.2 133.213 20.24L136.713 21.96C136.353 22.9733 135.7 23.7667 134.753 24.34C133.806 24.9133 132.666 25.2 131.333 25.2ZM143.44 25.2C142.227 25.2 141.133 24.96 140.16 24.48C139.2 23.9867 138.447 23.3133 137.9 22.46C137.353 21.5933 137.08 20.6133 137.08 19.52C137.08 18.4267 137.353 17.4533 137.9 16.6C138.447 15.7333 139.2 15.06 140.16 14.58C141.133 14.1 142.227 13.86 143.44 13.86C144.667 13.86 145.76 14.1 146.72 14.58C147.693 15.06 148.447 15.7333 148.98 16.6C149.527 17.4533 149.8 18.4267 149.8 19.52C149.8 20.6133 149.527 21.5933 148.98 22.46C148.447 23.3133 147.693 23.9867 146.72 24.48C145.76 24.96 144.667 25.2 143.44 25.2ZM143.44 21.68C143.96 21.68 144.387 21.4933 144.72 21.12C145.053 20.7333 145.22 20.2 145.22 19.52C145.22 18.84 145.053 18.3133 144.72 17.94C144.387 17.5667 143.96 17.38 143.44 17.38C142.92 17.38 142.493 17.5667 142.16 17.94C141.827 18.3133 141.66 18.84 141.66 19.52C141.66 20.2 141.827 20.7333 142.16 21.12C142.493 21.4933 142.92 21.68 143.44 21.68Z" fill="#C6C6C6"/>
<line x1="254.53" y1="0.53033" x2="233.53" y2="21.5303" stroke="black" stroke-width="1.5" stroke-dasharray="18 2"/>
<line x1="264.53" y1="0.53033" x2="243.53" y2="21.5303" stroke="#B3B3B3" stroke-width="1.5" stroke-dasharray="18 2"/>
</svg>
